/* XPM */
static char * border_br_inactive_xpm[] = {
"6 7 7 1",
" 	c None",
".	c #000000",
"+	c #99ADC8",
"@	c #A3B1CC",
"#	c #96A9C9",
"$	c #90A8CA",
"%	c #90A9C7",
"......",
"+++++.",
"@@@@@.",
"#####.",
"$$$$. ",
"%%%.. ",
"...   "};
