/* XPM */
static char * border_bl_active_xpm[] = {
"6 7 8 1",
" 	c None",
".	c #767676",
"+	c #E6E6E6",
"@	c #F4F4F4",
"#	c #E8E8E8",
"$	c #DBDBDB",
"%	c #E0E0E0",
"&	c #797979",
"......",
".+++++",
".@@@@@",
".#####",
" .$$$$",
" ..%%%",
"   &&&"};
