/* XPM */
static char * button_inactive_xpm[] = {
"19 23 287 2",
"  	c None",
". 	c #000000",
"+ 	c #9FBCDC",
"@ 	c #9DBADC",
"# 	c #9CB9DB",
"$ 	c #9DB6DE",
"% 	c #A1BAE2",
"& 	c #A2BBE3",
"* 	c #9FB8E0",
"= 	c #9AB3DB",
"- 	c #9FB6DF",
"; 	c #9FB7DD",
"> 	c #A0B8DE",
", 	c #A1BBE0",
"' 	c #A1BBDE",
") 	c #A2BAD2",
"! 	c #9FB7CF",
"~ 	c #A0B8D0",
"{ 	c #A1B5D6",
"] 	c #A2B6D7",
"^ 	c #A0B4D5",
"/ 	c #9FB3D4",
"( 	c #A4B8D9",
"_ 	c #AABEDF",
": 	c #A6BADB",
"< 	c #9CB0D1",
"[ 	c #A3B7D2",
"} 	c #A3B8D3",
"| 	c #A2B8D0",
"1 	c #9DB1C9",
"2 	c #9AAEC7",
"3 	c #9BAFC8",
"4 	c #9CB0C9",
"5 	c #9CADC9",
"6 	c #A1B2CE",
"7 	c #A2B3CF",
"8 	c #97A8C4",
"9 	c #99AAC6",
"0 	c #9EAFCB",
"a 	c #9BABC4",
"b 	c #A0B0C9",
"c 	c #A1B3CB",
"d 	c #9EB0C8",
"e 	c #99ADC6",
"f 	c #9EAECF",
"g 	c #9DADCF",
"h 	c #9EAED0",
"i 	c #A2B1C8",
"j 	c #99A8BF",
"k 	c #8D9CB3",
"l 	c #8291A8",
"m 	c #78879E",
"n 	c #728198",
"o 	c #738299",
"p 	c #77869D",
"q 	c #8F9DBA",
"r 	c #95A4C1",
"s 	c #9DACCB",
"t 	c #A0AFCE",
"u 	c #9DADCE",
"v 	c #9BABCD",
"w 	c #9EB0D4",
"x 	c #9EB0D6",
"y 	c #9CAED4",
"z 	c #9AACD2",
"A 	c #95A4B9",
"B 	c #8A99AE",
"C 	c #8897AC",
"D 	c #97A6BB",
"E 	c #A8B7CC",
"F 	c #ADBCD1",
"G 	c #A9B8CD",
"H 	c #A5B4C9",
"I 	c #8594B3",
"J 	c #8A99B8",
"K 	c #94A3C4",
"L 	c #A1B1D5",
"M 	c #A5BAD9",
"N 	c #9DB1D2",
"O 	c #8394A8",
"P 	c #90A1B5",
"Q 	c #A3B4C8",
"R 	c #B2C3D7",
"S 	c #B9CADE",
"T 	c #B8C9DD",
"U 	c #B5C6DA",
"V 	c #B4C5D9",
"W 	c #9BADC3",
"X 	c #91A3BB",
"Y 	c #90A1BB",
"Z 	c #9BAFCA",
"` 	c #A6B9D9",
" .	c #A5B9DA",
"..	c #9AB3C9",
"+.	c #9AB2CA",
"@.	c #93ABC3",
"#.	c #8DA5BD",
"$.	c #7E90A6",
"%.	c #90A2B8",
"&.	c #A1B3C9",
"*.	c #A9BBD1",
"=.	c #ACBED4",
"-.	c #ADBFD5",
";.	c #AABCD2",
">.	c #A6B8CE",
",.	c #A6BCC9",
"'.	c #8DA3B1",
").	c #7E93A4",
"!.	c #889FB1",
"~.	c #98AEC5",
"{.	c #9AB2CC",
"].	c #9BAECC",
"^.	c #94A5BF",
"/.	c #7A8BA5",
"(.	c #8E9DB2",
"_.	c #9CABC0",
":.	c #9FAEC3",
"<.	c #A2B1C6",
"[.	c #A4B3C8",
"}.	c #A1B0C5",
"|.	c #A1AEC1",
"1.	c #9CA8BE",
"2.	c #8C9BB2",
"3.	c #7888A1",
"4.	c #98A9C3",
"5.	c #97AAC8",
"6.	c #9DB0CE",
"7.	c #9DB1CC",
"8.	c #97A8C2",
"9.	c #7E8FA9",
"0.	c #9DACC1",
"a.	c #A3B2C7",
"b.	c #A7B6CB",
"c.	c #A4B1C4",
"d.	c #A1ADC3",
"e.	c #94A3BA",
"f.	c #8191AA",
"g.	c #9DAEC8",
"h.	c #A5B8D6",
"i.	c #A4B8D3",
"j.	c #9EAFC9",
"k.	c #899AB4",
"l.	c #ACBBD0",
"m.	c #AEBDD2",
"n.	c #B0BFD4",
"o.	c #B1C0D5",
"p.	c #AFBED3",
"q.	c #ABBACF",
"r.	c #ABB8CB",
"s.	c #ABB7CD",
"t.	c #A0AFC6",
"u.	c #8B9BB4",
"v.	c #A1B2CC",
"w.	c #9FB2D0",
"x.	c #9CAFCD",
"y.	c #98ACC7",
"z.	c #93A4BE",
"A.	c #8394AE",
"B.	c #B4C3D8",
"C.	c #B3C2D7",
"D.	c #ACB9CC",
"E.	c #B1BDD3",
"F.	c #A4B3CA",
"G.	c #8A9AB3",
"H.	c #96AAC5",
"I.	c #91A2BC",
"J.	c #8495AF",
"K.	c #B2C1D6",
"L.	c #ADBACD",
"M.	c #B2BED4",
"N.	c #A1B0C7",
"O.	c #8393AC",
"P.	c #8B9CB6",
"Q.	c #95A8C6",
"R.	c #8596B0",
"S.	c #B6C5DA",
"T.	c #B8C7DC",
"U.	c #B7C6DB",
"V.	c #B6C3D6",
"W.	c #B4C0D6",
"X.	c #9EADC4",
"Y.	c #8797B0",
"Z.	c #8FA0BA",
"`.	c #9AADCB",
" +	c #A2B5D3",
".+	c #9FB3CE",
"++	c #8E9FB9",
"@+	c #BDCCE1",
"#+	c #BCCBE0",
"$+	c #BBCADF",
"%+	c #BAC9DE",
"&+	c #BAC7DA",
"*+	c #8C9CB5",
"=+	c #9EB1CF",
"-+	c #99ADC8",
";+	c #8899B3",
">+	c #8190A5",
",+	c #B4C1D4",
"'+	c #9BA7BD",
")+	c #8392A9",
"!+	c #8999B2",
"~+	c #99ACCA",
"{+	c #93ACCB",
"]+	c #8EA8C1",
"^+	c #8AA4BD",
"/+	c #88A2BB",
"(+	c #7E90A4",
"_+	c #7D8FA3",
":+	c #8294A8",
"<+	c #92A4B8",
"[+	c #A4B6CA",
"}+	c #ABBDD1",
"|+	c #A3B5C9",
"1+	c #98AABE",
"2+	c #768FA5",
"3+	c #7A93A9",
"4+	c #8099AF",
"5+	c #87A0B6",
"6+	c #8EA7BD",
"7+	c #92ABC1",
"8+	c #97A9CD",
"9+	c #95A7CB",
"0+	c #93A5C9",
"a+	c #919EBE",
"b+	c #8895B5",
"c+	c #7E8BAB",
"d+	c #7986A6",
"e+	c #7A87A7",
"f+	c #7885A5",
"g+	c #7582A2",
"h+	c #8292B4",
"i+	c #8696B8",
"j+	c #8D9DBF",
"k+	c #93A3C5",
"l+	c #98A8CA",
"m+	c #A3B1CC",
"n+	c #9FACCE",
"o+	c #9EABCD",
"p+	c #9DAACC",
"q+	c #9FADCA",
"r+	c #9AA8C5",
"s+	c #93A1BE",
"t+	c #8B99B6",
"u+	c #8694B1",
"v+	c #8593B0",
"w+	c #8997B4",
"x+	c #8D9BB8",
"y+	c #93A0C2",
"z+	c #96A3C5",
"A+	c #9BA8CA",
"B+	c #A1AED0",
"C+	c #A4B1D3",
"D+	c #96A9C9",
"E+	c #96AAC2",
"F+	c #97ABC3",
"G+	c #8EA4B9",
"H+	c #90A6BB",
"I+	c #8DA3B8",
"J+	c #899FB4",
"K+	c #879DB2",
"L+	c #8CA2B7",
"M+	c #90A2BA",
"N+	c #92A4BC",
"O+	c #95A7BF",
"P+	c #97A9C1",
"Q+	c #98AAC2",
"R+	c #90A8CA",
"S+	c #8BA5C0",
"T+	c #8CA6C1",
"U+	c #8CAAC4",
"V+	c #8BA9C3",
"W+	c #88A6C0",
"X+	c #86A4BE",
"Y+	c #85A3BD",
"Z+	c #87A5BF",
"`+	c #90A8C4",
" @	c #90A9C7",
".@	c #90A8CC",
"+@	c #91A9CD",
"@@	c #8FA9CE",
"#@	c #90AACF",
"$@	c #91ABD0",
"%@	c #92ACD1",
"&@	c #93A9D0",
"*@	c #92A8CF",
"=@	c #90A6CD",
"-@	c #8FA5CC",
". . . . . . . . . . . . . . . . . . . ",
"+ @ # # $ % & * = = $ % - ; > , ' # + ",
") ! ! ~ { ] ^ / ( _ : < [ } } | ~ ~ ) ",
"1 2 3 4 5 6 7 5 8 9 0 6 a b c d e 2 1 ",
"f g g h i j k l m n o p q r s t u v f ",
"w x y z A B C D E F G H I J K g L y w ",
"M : { N O P Q R S T U V W X Y Z `  .M ",
"..+.@.#.$.%.&.*.=.-.;.>.,.'.).!.~.{...",
"].Z ^./.(.A _.:.<.H [.}.|.1.2.3.4.5.].",
"6.7.8.9.D 0.a.H b.G b.a.c.d.e.f.g.].6.",
"h.i.j.k.<.b.l.m.n.o.p.q.r.s.t.u.v.w.h.",
"x.y.z.A.H G F p.o.B.C.n.D.E.F.G.8.].x.",
"x.H.I.J.a.G m.p.n.K.C.K.L.M.N.O.P.Q.x.",
"].H.Y R.[.F S.T.U.T.T.U.V.W.X.Y.Z.`.].",
" +.+4.++D b.S.@+#+$+$+%+&+s.e.*+8.=+ +",
"`.-+I.;+>+A l.S.U.U.S.S.,+'+)+!+4.~+`.",
"{+]+^+/+(+_+:+<+[+}+|+1+2+3+4+5+6+7+{+",
"-+8+9+0+a+b+c+d+e+e+f+g+h+i+j+k+l+v -+",
"m+n+o+p+q+r+s+t+u+v+w+x+y+z+A+B+C+C+m+",
"D+E+F+F+G+H+H+I+J+K+J+L+M+N+O+P+Q+Q+D+",
"R+S+T+T+U+U+V+W+X+Y+X+Z+`+`+`+`+`+`+R+",
" @.@+@+@@@@@@@#@$@%@$@#@&@*@=@-@-@=@ @",
". . . . . . . . . . . . . . . . . . . "};
