/* XPM */
static char * close_highlight_xpm[] = {
"19 23 305 2",
"  	c None",
". 	c #797979",
"+ 	c #FEFEFE",
"@ 	c #FDFDFD",
"# 	c #FBFBFB",
"$ 	c #F6F6F6",
"% 	c #FAFAFA",
"& 	c #FFFFFF",
"* 	c #FCFCFC",
"= 	c #F7F7F7",
"- 	c #F8F8F8",
"; 	c #F9F9F9",
"> 	c #F2F2F2",
", 	c #EEEEEE",
"' 	c #E9E9E9",
") 	c #F0F0F0",
"! 	c #EDEDED",
"~ 	c #A3A3A3",
"{ 	c #565656",
"] 	c #292929",
"^ 	c #000000",
"/ 	c #252525",
"( 	c #585858",
"_ 	c #9F9F9F",
": 	c #F1F1F1",
"< 	c #EFEFEF",
"[ 	c #D1D1D1",
"} 	c #757575",
"| 	c #525252",
"1 	c #868686",
"2 	c #C5C5C5",
"3 	c #DBDBDB",
"4 	c #C1C1C1",
"5 	c #8B8B8B",
"6 	c #5B5B5B",
"7 	c #707070",
"8 	c #C3C3C3",
"9 	c #F8F9FB",
"0 	c #FFFEFF",
"a 	c #F6ECED",
"b 	c #696170",
"c 	c #64535B",
"d 	c #9D8585",
"e 	c #EDCFCD",
"f 	c #FFEFF0",
"g 	c #FFDEDF",
"h 	c #FFEBED",
"i 	c #EFCBCD",
"j 	c #A98A88",
"k 	c #5F4A47",
"l 	c #635D5F",
"m 	c #FFFBFC",
"n 	c #FCFFFF",
"o 	c #FBFFFF",
"p 	c #FEF8FA",
"q 	c #A6868B",
"r 	c #482430",
"s 	c #6F3A40",
"t 	c #995457",
"u 	c #BC7175",
"v 	c #F1A8AF",
"w 	c #E9A2AA",
"x 	c #ECA3AC",
"y 	c #B97077",
"z 	c #A3585C",
"A 	c #743637",
"B 	c #4A2024",
"C 	c #9C8387",
"D 	c #F7FFFF",
"E 	c #F9FEFF",
"F 	c #EADEE0",
"G 	c #835258",
"H 	c #6C2F37",
"I 	c #8A3437",
"J 	c #70090A",
"K 	c #640000",
"L 	c #96363A",
"M 	c #B55860",
"N 	c #91343C",
"O 	c #5F0003",
"P 	c #71080C",
"Q 	c #973739",
"R 	c #742C2F",
"S 	c #785156",
"T 	c #EAE1E4",
"U 	c #EFFBF9",
"V 	c #F3F3F3",
"W 	c #FAFCF9",
"X 	c #E0CECC",
"Y 	c #5C2427",
"Z 	c #933C42",
"` 	c #AF3D3C",
" .	c #991813",
"..	c #8B0C06",
"+.	c #7C100D",
"@.	c #912F2E",
"#.	c #741211",
"$.	c #811513",
"%.	c #921614",
"&.	c #B13938",
"*.	c #983637",
"=.	c #5B2A2D",
"-.	c #E0D0D0",
";.	c #F7FFFD",
">.	c #FAF9F4",
",.	c #E4CDC7",
"'.	c #4F1211",
").	c #9B3739",
"!.	c #C84741",
"~.	c #DE5245",
"{.	c #D85246",
"].	c #8F2015",
"^.	c #832219",
"/.	c #801E15",
"(.	c #C3564F",
"_.	c #D9564E",
":.	c #C94540",
"<.	c #9E302F",
"[.	c #4A0F11",
"}.	c #DFCAC7",
"|.	c #FEFFFB",
"1.	c #F4F0E7",
"2.	c #DCC1B8",
"3.	c #55110E",
"4.	c #AE4846",
"5.	c #E06053",
"6.	c #F86D5A",
"7.	c #DD5B45",
"8.	c #9C3522",
"9.	c #953C2A",
"0.	c #903425",
"a.	c #C15B4C",
"b.	c #F57667",
"c.	c #E46459",
"d.	c #B24540",
"e.	c #541414",
"f.	c #DCBEBC",
"g.	c #EDECE7",
"h.	c #E7E7E7",
"i.	c #E9E5DA",
"j.	c #CCB1A6",
"k.	c #682721",
"l.	c #B25754",
"m.	c #E16B5D",
"n.	c #E3614B",
"o.	c #AC3016",
"p.	c #99331D",
"q.	c #AD523F",
"r.	c #993E2C",
"s.	c #9B3526",
"t.	c #E36A59",
"u.	c #E56B5E",
"v.	c #B7514C",
"w.	c #71312F",
"x.	c #CEAFAC",
"y.	c #E6E3DC",
"z.	c #EFEDE1",
"A.	c #D4BEB3",
"B.	c #8F5851",
"C.	c #964F4D",
"D.	c #CF6A5E",
"E.	c #A93420",
"F.	c #9D2610",
"G.	c #E77D6D",
"H.	c #FFA69A",
"I.	c #DC776D",
"J.	c #8D2218",
"K.	c #AC382B",
"L.	c #DB6F63",
"M.	c #984541",
"N.	c #8C5753",
"O.	c #C9B0AC",
"P.	c #F4F1EC",
"Q.	c #FFFFF5",
"R.	c #E9DBD0",
"S.	c #AF877F",
"T.	c #703C3E",
"U.	c #B76A60",
"V.	c #C76A59",
"W.	c #E98472",
"X.	c #FFA99E",
"Y.	c #FFB8B1",
"Z.	c #FFADA7",
"`.	c #E07D78",
" +	c #CB665E",
".+	c #C36A64",
"++	c #713131",
"@+	c #AE8684",
"#+	c #E6D4D0",
"$+	c #FFFFFB",
"%+	c #F1F4ED",
"&+	c #DFD8D0",
"*+	c #B39C94",
"=+	c #604348",
"-+	c #70403C",
";+	c #BE7E74",
">+	c #E59B92",
",+	c #FFC0BC",
"'+	c #FFBEBD",
")+	c #FFC1C3",
"!+	c #EC9C9D",
"~+	c #D08280",
"{+	c #854545",
"]+	c #6D444A",
"^+	c #AD9895",
"/+	c #D7CFCD",
"(+	c #F3F3F1",
"_+	c #F0F5F1",
":+	c #E4E5DF",
"<+	c #C3BAB3",
"[+	c #5C505C",
"}+	c #5A4447",
"|+	c #613F3D",
"1+	c #966A67",
"2+	c #A97778",
"3+	c #C48D92",
"4+	c #A66D73",
"5+	c #976065",
"6+	c #69373A",
"7+	c #6E474C",
"8+	c #5C4853",
"9+	c #CAC5C1",
"0+	c #F1F3F2",
"a+	c #F4F5F7",
"b+	c #E6E6E6",
"c+	c #EBEFEE",
"d+	c #E9EEEA",
"e+	c #DADCD7",
"f+	c #B8B5B0",
"g+	c #8E837D",
"h+	c #6E5D56",
"i+	c #5F4B44",
"j+	c #5D4541",
"k+	c #5D4346",
"l+	c #5A4043",
"m+	c #5D4845",
"n+	c #71625B",
"o+	c #938C84",
"p+	c #B7B8B2",
"q+	c #CFD8D5",
"r+	c #DEE6E8",
"s+	c #E9EDF0",
"t+	c #F4F4F4",
"u+	c #FEFFFF",
"v+	c #F1F7F3",
"w+	c #D3D5D0",
"x+	c #AAA9A4",
"y+	c #918C86",
"z+	c #8B817F",
"A+	c #7C6D72",
"B+	c #86777E",
"C+	c #988E8D",
"D+	c #B2AFAA",
"E+	c #CCD1CA",
"F+	c #E1ECE6",
"G+	c #EEFAFA",
"H+	c #F3FEFF",
"I+	c #E8E8E8",
"J+	c #ECEAED",
"K+	c #E6E7E9",
"L+	c #E5EBE9",
"M+	c #EAF3EE",
"N+	c #E4EAE6",
"O+	c #CDD2CC",
"P+	c #BBBDB8",
"Q+	c #B6B5B3",
"R+	c #BAB3BA",
"S+	c #C1B7C0",
"T+	c #C7C3C4",
"U+	c #D0D1CC",
"V+	c #D9E0D9",
"W+	c #E1EAE7",
"X+	c #E6F0F1",
"Y+	c #EAF2F5",
"Z+	c #EDF0F5",
"`+	c #EFE9ED",
" @	c #E2E0E1",
".@	c #DEE0DF",
"+@	c #E5EAE6",
"@@	c #EAF0EC",
"#@	c #E4EBE4",
"$@	c #DCE1DB",
"%@	c #DBDDDA",
"&@	c #E3DEE5",
"*@	c #E2DDE4",
"=@	c #E3DFE0",
"-@	c #E7E7E5",
";@	c #EDEFEC",
">@	c #E3E8EB",
",@	c #DDE0E5",
"'@	c #E6E7EC",
")@	c #E0E0E0",
"!@	c #F1E5E9",
"~@	c #E4E3E1",
"{@	c #E6E8E3",
"]@	c #E2E7E1",
"^@	c #E3E5E2",
"/@	c #ECE7EE",
"(@	c #E7E0E8",
"_@	c #E2DCDE",
":@	c #E3DEDB",
"<@	c #E7E3E0",
"[@	c #EAE6E5",
"}@	c #E6E4E7",
"|@	c #E3E1E6",
". . . . . . . . . . . . . . . . . . . ",
"+ @ # $ % & & # * & & @ # & & & % & + ",
"+ & & & & & * * & & $ % & = # & = @ + ",
"- # & & & # + & & # ; & & ; > % & @ - ",
", & ' ) & ! ~ { ] ^ / ( _ : & % < - , ",
"- $ & & [ } | 1 2 3 4 5 6 7 8 * & & - ",
"& 9 0 a b c d e f g h i j k l m @ n & ",
"= o p q r s t u v w x y z A B C 0 D = ",
"< E F G H I J K L M N O P Q R S T U < ",
"V W X Y Z `  ...+.@.#.$.%.&.*.=.-.;.V ",
"+ >.,.'.).!.~.{.].^./.(._.:.<.[.}.|.+ ",
"! 1.2.3.4.5.6.7.8.9.0.a.b.c.d.e.f.g.! ",
"h.i.j.k.l.m.n.o.p.q.r.s.t.u.v.w.x.y.h.",
"< z.A.B.C.D.E.F.G.H.I.J.K.L.M.N.O.P.< ",
"+ Q.R.S.T.U.V.W.X.Y.Z.`. +.+++@+#+$++ ",
"< %+&+*+=+-+;+>+,+'+)+!+~+{+]+^+/+(+< ",
"h._+:+<+[+}+|+1+2+3+4+5+6+7+8+9+0+a+h.",
"b+c+d+e+f+g+h+i+j+k+l+m+n+o+p+q+r+s+b+",
"t+u+o o v+w+x+y+z+A+B+C+D+E+F+G+H+n t+",
"I+J+K+L+M+N+O+P+Q+R+S+T+U+V+W+X+Y+Z+I+",
"3 `+ @.@+@@@#@$@%@&@*@=@-@;@c+>@,@'@3 ",
")@!@T =@~@-@{@]@^@/@(@_@:@<@[@}@|@|@)@",
". . . . . . . . . . . . . . . . . . . "};
