/* XPM */
static char * close_active_xpm[] = {
"19 23 304 2",
"  	c None",
". 	c #797979",
"+ 	c #FEFEFE",
"@ 	c #FDFDFD",
"# 	c #FBFBFB",
"$ 	c #F6F6F6",
"% 	c #FAFAFA",
"& 	c #FFFFFF",
"* 	c #FCFCFC",
"= 	c #F7F7F7",
"- 	c #F8F8F8",
"; 	c #F9F9F9",
"> 	c #F2F2F2",
", 	c #EEEEEE",
"' 	c #E9E9E9",
") 	c #F0F0F0",
"! 	c #EDEDED",
"~ 	c #A3A3A3",
"{ 	c #565656",
"] 	c #292929",
"^ 	c #000000",
"/ 	c #252525",
"( 	c #585858",
"_ 	c #9F9F9F",
": 	c #F1F1F1",
"< 	c #EFEFEF",
"[ 	c #D1D1D1",
"} 	c #757575",
"| 	c #525252",
"1 	c #868686",
"2 	c #C5C5C5",
"3 	c #DBDBDB",
"4 	c #C1C1C1",
"5 	c #8B8B8B",
"6 	c #5B5B5B",
"7 	c #707070",
"8 	c #C3C3C3",
"9 	c #F8F9FB",
"0 	c #FFFEFF",
"a 	c #F6ECED",
"b 	c #857274",
"c 	c #593F42",
"d 	c #AC8F91",
"e 	c #FBE1E0",
"f 	c #FCE4E2",
"g 	c #FFE9E9",
"h 	c #FFE9EA",
"i 	c #FFE5E7",
"j 	c #A6898B",
"k 	c #482F32",
"l 	c #958284",
"m 	c #FFFBFC",
"n 	c #FCFFFF",
"o 	c #FBFFFF",
"p 	c #FEF8FA",
"q 	c #A6868B",
"r 	c #622930",
"s 	c #974A52",
"t 	c #C67176",
"u 	c #E99B99",
"v 	c #E09693",
"w 	c #E39998",
"x 	c #EFA1A1",
"y 	c #ED9498",
"z 	c #C0696F",
"A 	c #9E5358",
"B 	c #5C252B",
"C 	c #9C8387",
"D 	c #F7FFFF",
"E 	c #F9FEFF",
"F 	c #EADEE0",
"G 	c #835258",
"H 	c #75242B",
"I 	c #9D2F38",
"J 	c #B13A40",
"K 	c #C45754",
"L 	c #C45D56",
"M 	c #C05A56",
"N 	c #C75B59",
"O 	c #C74F51",
"P 	c #B1383D",
"Q 	c #A0353D",
"R 	c #6D1E24",
"S 	c #785156",
"T 	c #EAE1E4",
"U 	c #EFFBF9",
"V 	c #F3F3F3",
"W 	c #FAFCF9",
"X 	c #E0CECC",
"Y 	c #5C2427",
"Z 	c #8E3338",
"` 	c #A82F36",
" .	c #B63436",
"..	c #C04941",
"+.	c #C8584C",
"@.	c #C75B51",
"#.	c #C95850",
"$.	c #C94745",
"%.	c #BE3C3E",
"&.	c #8C3136",
"*.	c #5B2A2D",
"=.	c #E0D0D0",
"-.	c #F7FFFD",
";.	c #FAF9F4",
">.	c #E4CDC7",
",.	c #4F1211",
"'.	c #A94748",
").	c #C14044",
"!.	c #E05654",
"~.	c #E96B5F",
"{.	c #EF7767",
"].	c #E57567",
"^.	c #E97367",
"/.	c #E8615B",
"(.	c #DE5452",
"_.	c #C24447",
":.	c #A23D41",
"<.	c #4A0F11",
"[.	c #DFCAC7",
"}.	c #FEFFFB",
"|.	c #F4F0E7",
"1.	c #DCC1B8",
"2.	c #55110E",
"3.	c #B6504E",
"4.	c #D5514F",
"5.	c #F76A63",
"6.	c #FA7667",
"7.	c #FF8671",
"8.	c #FB8875",
"9.	c #FC8474",
"0.	c #FD746A",
"a.	c #F96C65",
"b.	c #DD5957",
"c.	c #B44A4A",
"d.	c #541414",
"e.	c #DCBEBC",
"f.	c #EDECE7",
"g.	c #E7E7E7",
"h.	c #E9E5DA",
"i.	c #CCB1A6",
"j.	c #682721",
"k.	c #B3524C",
"l.	c #E46761",
"m.	c #FF7A71",
"n.	c #FD7E6D",
"o.	c #FF937D",
"p.	c #FFA18C",
"q.	c #FF9785",
"r.	c #FF887B",
"s.	c #FF857C",
"t.	c #F17470",
"u.	c #B85250",
"v.	c #71312F",
"w.	c #CEAFAC",
"x.	c #E6E3DC",
"y.	c #EFEDE1",
"z.	c #D4BEB3",
"A.	c #8F5851",
"B.	c #9B4840",
"C.	c #E1746D",
"D.	c #FF9288",
"E.	c #FF9684",
"F.	c #FFA894",
"G.	c #FFB19E",
"H.	c #FFA795",
"I.	c #FF9789",
"J.	c #FF8E84",
"K.	c #E47772",
"L.	c #98403C",
"M.	c #8C5753",
"N.	c #C9B0AC",
"O.	c #F4F1EC",
"P.	c #FFFFF5",
"Q.	c #E9DBD0",
"R.	c #AF877F",
"S.	c #7A3A31",
"T.	c #C77067",
"U.	c #FFA397",
"V.	c #FFAA99",
"W.	c #FFB09E",
"X.	c #FFBDAD",
"Y.	c #FFB9AB",
"Z.	c #FFADA0",
"`.	c #F89C91",
" +	c #D07B74",
".+	c #7E3B35",
"++	c #AE8684",
"@+	c #E6D4D0",
"#+	c #FFFFFB",
"$+	c #F1F4ED",
"%+	c #DFD8D0",
"&+	c #B39C94",
"*+	c #875F57",
"=+	c #884F46",
"-+	c #B8756C",
";+	c #EAA89A",
">+	c #FFC2B4",
",+	c #FFC3BA",
"'+	c #FFC0B7",
")+	c #EAA79E",
"!+	c #B7796E",
"~+	c #89524B",
"{+	c #865D57",
"]+	c #AD9895",
"^+	c #D7CFCD",
"/+	c #F3F3F1",
"(+	c #F0F5F1",
"_+	c #E4E5DF",
":+	c #C3BAB3",
"<+	c #95827B",
"[+	c #7E5D56",
"}+	c #845C54",
"|+	c #976D61",
"1+	c #A3786F",
"2+	c #C09491",
"3+	c #AD817E",
"4+	c #91665F",
"5+	c #775249",
"6+	c #775A52",
"7+	c #988780",
"8+	c #CAC5C1",
"9+	c #F1F3F2",
"0+	c #F4F5F7",
"a+	c #E6E6E6",
"b+	c #EBEFEE",
"c+	c #E9EEEA",
"d+	c #DADCD7",
"e+	c #B8B5B0",
"f+	c #8E837D",
"g+	c #6E5D56",
"h+	c #5F4B44",
"i+	c #5D4541",
"j+	c #5D4346",
"k+	c #5A4043",
"l+	c #5D4845",
"m+	c #71625B",
"n+	c #938C84",
"o+	c #B7B8B2",
"p+	c #CFD8D5",
"q+	c #DEE6E8",
"r+	c #E9EDF0",
"s+	c #F4F4F4",
"t+	c #FEFFFF",
"u+	c #F1F7F3",
"v+	c #D3D5D0",
"w+	c #AAA9A4",
"x+	c #918C86",
"y+	c #8B817F",
"z+	c #7C6D72",
"A+	c #86777E",
"B+	c #988E8D",
"C+	c #B2AFAA",
"D+	c #CCD1CA",
"E+	c #E1ECE6",
"F+	c #EEFAFA",
"G+	c #F3FEFF",
"H+	c #E8E8E8",
"I+	c #ECEAED",
"J+	c #E6E7E9",
"K+	c #E5EBE9",
"L+	c #EAF3EE",
"M+	c #E4EAE6",
"N+	c #CDD2CC",
"O+	c #BBBDB8",
"P+	c #B6B5B3",
"Q+	c #BAB3BA",
"R+	c #C1B7C0",
"S+	c #C7C3C4",
"T+	c #D0D1CC",
"U+	c #D9E0D9",
"V+	c #E1EAE7",
"W+	c #E6F0F1",
"X+	c #EAF2F5",
"Y+	c #EDF0F5",
"Z+	c #EFE9ED",
"`+	c #E2E0E1",
" @	c #DEE0DF",
".@	c #E5EAE6",
"+@	c #EAF0EC",
"@@	c #E4EBE4",
"#@	c #DCE1DB",
"$@	c #DBDDDA",
"%@	c #E3DEE5",
"&@	c #E2DDE4",
"*@	c #E3DFE0",
"=@	c #E7E7E5",
"-@	c #EDEFEC",
";@	c #E3E8EB",
">@	c #DDE0E5",
",@	c #E6E7EC",
"'@	c #E0E0E0",
")@	c #F1E5E9",
"!@	c #E4E3E1",
"~@	c #E6E8E3",
"{@	c #E2E7E1",
"]@	c #E3E5E2",
"^@	c #ECE7EE",
"/@	c #E7E0E8",
"(@	c #E2DCDE",
"_@	c #E3DEDB",
":@	c #E7E3E0",
"<@	c #EAE6E5",
"[@	c #E6E4E7",
"}@	c #E3E1E6",
". . . . . . . . . . . . . . . . . . . ",
"+ @ # $ % & & # * & & @ # & & & % & + ",
"+ & & & & & * * & & $ % & = # & = @ + ",
"- # & & & # + & & # ; & & ; > % & @ - ",
", & ' ) & ! ~ { ] ^ / ( _ : & % < - , ",
"- $ & & [ } | 1 2 3 4 5 6 7 8 * & & - ",
"& 9 0 a b c d e f g h i j k l m @ n & ",
"= o p q r s t u v w x y z A B C 0 D = ",
"< E F G H I J K L M N O P Q R S T U < ",
"V W X Y Z `  ...+.@.#.$.%.J &.*.=.-.V ",
"+ ;.>.,.'.).!.~.{.].^./.(._.:.<.[.}.+ ",
"! |.1.2.3.4.5.6.7.8.9.0.a.b.c.d.e.f.! ",
"g.h.i.j.k.l.m.n.o.p.q.r.s.t.u.v.w.x.g.",
"< y.z.A.B.C.D.E.F.G.H.I.J.K.L.M.N.O.< ",
"+ P.Q.R.S.T.U.V.W.X.Y.Z.`. +.+++@+#++ ",
"< $+%+&+*+=+-+;+>+,+'+)+!+~+{+]+^+/+< ",
"g.(+_+:+<+[+}+|+1+2+3+4+5+6+7+8+9+0+g.",
"a+b+c+d+e+f+g+h+i+j+k+l+m+n+o+p+q+r+a+",
"s+t+o o u+v+w+x+y+z+A+B+C+D+E+F+G+n s+",
"H+I+J+K+L+M+N+O+P+Q+R+S+T+U+V+W+X+Y+H+",
"3 Z+`+ @.@+@@@#@$@%@&@*@=@-@b+;@>@,@3 ",
"'@)@T *@!@=@~@{@]@^@/@(@_@:@<@[@}@}@'@",
". . . . . . . . . . . . . . . . . . . "};
