/* XPM */
static char * iconify_active_xpm[] = {
"19 23 345 2",
"  	c None",
". 	c #797979",
"+ 	c #FEFEFE",
"@ 	c #FFFFFF",
"# 	c #FEFFFF",
"$ 	c #EDF3EF",
"% 	c #FBFFFD",
"& 	c #FCFFFD",
"* 	c #FEFFFD",
"= 	c #FFFFFD",
"- 	c #FFFEFD",
"; 	c #FFFBFB",
"> 	c #F1EBEB",
", 	c #FFFDFD",
"' 	c #F7F9F6",
") 	c #FDFDFD",
"! 	c #FCFEFD",
"~ 	c #F8FDF9",
"{ 	c #FBFDFA",
"] 	c #FDFCFA",
"^ 	c #FBF7F6",
"/ 	c #FFFCFD",
"( 	c #FFFBFD",
"_ 	c #FFFAFB",
": 	c #FFFCFB",
"< 	c #FBFAF8",
"[ 	c #FDFFFC",
"} 	c #F8F8F8",
"| 	c #F0F1EC",
"1 	c #FCFBF7",
"2 	c #FFFEFB",
"3 	c #FEF2F2",
"4 	c #FFF1F2",
"5 	c #FFF7F8",
"6 	c #FDEAEC",
"7 	c #FFF2F3",
"8 	c #FFFAF7",
"9 	c #F7F6F2",
"0 	c #FBFCF7",
"a 	c #EEEEEE",
"b 	c #F6F6F6",
"c 	c #F6F6F4",
"d 	c #F7F6F4",
"e 	c #F4ECEA",
"f 	c #A99F9E",
"g 	c #5E5050",
"h 	c #311E20",
"i 	c #2B1518",
"j 	c #3D272A",
"k 	c #7A6467",
"l 	c #B29EA0",
"m 	c #F1DEE0",
"n 	c #FFFAFA",
"o 	c #FFF5F4",
"p 	c #F7F2EF",
"q 	c #F8F4F1",
"r 	c #FBFBFB",
"s 	c #FCFBF9",
"t 	c #CEC6C4",
"u 	c #786C6C",
"v 	c #625253",
"w 	c #A08C8E",
"x 	c #DDC7CA",
"y 	c #E9CED3",
"z 	c #DFC2C7",
"A 	c #96797E",
"B 	c #785D62",
"C 	c #8F767A",
"D 	c #E2CED0",
"E 	c #FAF0EF",
"F 	c #FFF1F4",
"G 	c #9A7C7A",
"H 	c #6F4F42",
"I 	c #BA9986",
"J 	c #FFE4D1",
"K 	c #FFF3E0",
"L 	c #FFEBDE",
"M 	c #FFECDF",
"N 	c #FFEBDC",
"O 	c #B0887C",
"P 	c #734B43",
"Q 	c #A78480",
"R 	c #FFE2E7",
"S 	c #FFF7FD",
"T 	c #F7F7F7",
"U 	c #FFF9F9",
"V 	c #BE8C95",
"W 	c #7D3A34",
"X 	c #AA6B40",
"Y 	c #DB9F61",
"Z 	c #F8BE7E",
"` 	c #FEC888",
" .	c #FFCD96",
"..	c #FAC792",
"+.	c #F8C087",
"@.	c #DFA36F",
"#.	c #B77552",
"$.	c #763726",
"%.	c #C48F95",
"&.	c #FFF2FF",
"*.	c #FFFAFF",
"=.	c #EFEFEF",
"-.	c #FAFCF9",
";.	c #F7E5E1",
">.	c #945550",
",.	c #A24C31",
"'.	c #CB7C37",
").	c #DC9335",
"!.	c #DF9D3C",
"~.	c #EDAE4F",
"{.	c #F2B864",
"].	c #E7AD59",
"^.	c #E6A547",
"/.	c #D9923A",
"(.	c #CD7E3B",
"_.	c #964821",
":.	c #9B5B52",
"<.	c #FFD2D9",
"[.	c #FFF2F2",
"}.	c #F3F3F3",
"|.	c #EFDDD1",
"1.	c #783815",
"2.	c #C67232",
"3.	c #E29432",
"4.	c #E7A02C",
"5.	c #E09F2B",
"6.	c #E9AD3D",
"7.	c #EEB54C",
"8.	c #E8AE40",
"9.	c #E6A628",
"0.	c #E6A024",
"a.	c #E3942B",
"b.	c #BC6E23",
"c.	c #7F3D1A",
"d.	c #F9CBBC",
"e.	c #FFF7EC",
"f.	c #FFFEFF",
"g.	c #E4D1C2",
"h.	c #7E400D",
"i.	c #DC8E3B",
"j.	c #E59C2B",
"k.	c #FAB93B",
"l.	c #FDC147",
"m.	c #FBC44F",
"n.	c #F7C355",
"o.	c #FEC752",
"p.	c #FABF35",
"q.	c #FFBB32",
"r.	c #F1A52D",
"s.	c #D88C34",
"t.	c #7F3F11",
"u.	c #FED1BA",
"v.	c #FFFBED",
"w.	c #EDEDED",
"x.	c #F1ECF0",
"y.	c #CAB7A8",
"z.	c #864D16",
"A.	c #E79D46",
"B.	c #EAA837",
"C.	c #FFC44A",
"D.	c #FFD361",
"E.	c #FFD96D",
"F.	c #FFD571",
"G.	c #FFD76C",
"H.	c #FFCE50",
"I.	c #FFC343",
"J.	c #F8AF40",
"K.	c #E8A04C",
"L.	c #804219",
"M.	c #EABFAE",
"N.	c #FCE9E2",
"O.	c #E7E7E7",
"P.	c #E6E4E9",
"Q.	c #C1AFA3",
"R.	c #8F5D28",
"S.	c #E8AA55",
"T.	c #FFC95C",
"U.	c #FFD059",
"V.	c #FFDC6A",
"W.	c #FFEC81",
"X.	c #FFEB86",
"Y.	c #FFE478",
"Z.	c #FFDD63",
"`.	c #FFCA50",
" +	c #FFC55C",
".+	c #EAAC5F",
"++	c #86522B",
"@+	c #D4B0A0",
"#+	c #F0E3DB",
"$+	c #F1F0F6",
"%+	c #D1C4BB",
"&+	c #9A784B",
"*+	c #C89C51",
"=+	c #FED76E",
"-+	c #FFE36C",
";+	c #FFEF76",
">+	c #FFF981",
",+	c #FFFA87",
"'+	c #FFF780",
")+	c #FFF175",
"!+	c #FFDF67",
"~+	c #FED06E",
"{+	c #C79B54",
"]+	c #97744E",
"^+	c #D6C1AE",
"/+	c #F7F5E8",
"(+	c #FDFEFF",
"_+	c #DED9D5",
":+	c #A1896D",
"<+	c #997A43",
"[+	c #DFC66C",
"}+	c #FFEC7F",
"|+	c #FFFF89",
"1+	c #FFF87D",
"2+	c #FDF47D",
"3+	c #FFFD84",
"4+	c #FFEF80",
"5+	c #E5C76F",
"6+	c #937537",
"7+	c #A58E6E",
"8+	c #E5D9C9",
"9+	c #FEFFF4",
"0+	c #E5EAEE",
"a+	c #DFE0E2",
"b+	c #A79A94",
"c+	c #7C684D",
"d+	c #8C7C3E",
"e+	c #D6CB72",
"f+	c #FFFB91",
"g+	c #FFFF96",
"h+	c #FFFF94",
"i+	c #FAF889",
"j+	c #FFFF97",
"k+	c #CCC462",
"l+	c #8E8037",
"m+	c #867547",
"n+	c #B1A58F",
"o+	c #E1DDD4",
"p+	c #EFF6EF",
"q+	c #E7EFF2",
"r+	c #E1E6EC",
"s+	c #B7B0B8",
"t+	c #897E78",
"u+	c #756B47",
"v+	c #857D3F",
"w+	c #9F994D",
"x+	c #C6C471",
"y+	c #E1E08D",
"z+	c #DCDB88",
"A+	c #929141",
"B+	c #7F7C37",
"C+	c #767040",
"D+	c #8F886C",
"E+	c #C0B9B1",
"F+	c #E7E5E8",
"G+	c #F0F5F8",
"H+	c #E6E6E6",
"I+	c #E2EAED",
"J+	c #DDE4EC",
"K+	c #E1DFED",
"L+	c #BBB4BC",
"M+	c #938B80",
"N+	c #6F654C",
"O+	c #54492B",
"P+	c #564B2B",
"Q+	c #554C2D",
"R+	c #3C3616",
"S+	c #5A5535",
"T+	c #6E684E",
"U+	c #928A7D",
"V+	c #BCB4B2",
"W+	c #DED8E2",
"X+	c #F0ECFB",
"Y+	c #F1F0FE",
"Z+	c #F4F4F4",
"`+	c #F9FFFF",
" @	c #F7FEFF",
".@	c #FCFCFF",
"+@	c #E2DFE8",
"@@	c #CEC9C6",
"#@	c #B9B0A9",
"$@	c #9B908C",
"%@	c #8D827E",
"&@	c #8C8082",
"*@	c #847A7B",
"=@	c #978F8D",
"-@	c #AFA9A9",
";@	c #D4CED2",
">@	c #F0EAF4",
",@	c #FBF7FF",
"'@	c #FDF9FF",
")@	c #F9F7FF",
"!@	c #E8E8E8",
"~@	c #EDF0F5",
"{@	c #ECF1F4",
"]@	c #F2F4F1",
"^@	c #E5E6E0",
"/@	c #DEDED4",
"(@	c #D7D2CC",
"_@	c #C2B9BA",
":@	c #B5ABB3",
"<@	c #B9AEBC",
"[@	c #BCB4C3",
"}@	c #C2BAC7",
"|@	c #CFC9D3",
"1@	c #E0DBE2",
"2@	c #EBE6ED",
"3@	c #EBE9EE",
"4@	c #EAE8EB",
"5@	c #E9EAE5",
"6@	c #DBDBDB",
"7@	c #E6E7EC",
"8@	c #E4E8EB",
"9@	c #DEE3DD",
"0@	c #E7EAE1",
"a@	c #EDF0E5",
"b@	c #E8E9E3",
"c@	c #E0DEDF",
"d@	c #DDDAE1",
"e@	c #DEDBE6",
"f@	c #DBD7E5",
"g@	c #E4E1EC",
"h@	c #E6E3EC",
"i@	c #E9E6ED",
"j@	c #ECEAED",
"k@	c #EBEBE9",
"l@	c #EBEEE7",
"m@	c #E0E0E0",
"n@	c #E2DFE6",
"o@	c #E1E0E8",
"p@	c #E2E5EA",
"q@	c #E5EBEB",
"r@	c #E4EAE6",
"s@	c #DFE6DF",
"t@	c #DFE4DE",
"u@	c #E2E7E1",
"v@	c #E4E9E5",
"w@	c #E7E9E8",
"x@	c #E3E5E4",
"y@	c #E3E3E5",
"z@	c #E2E1E6",
"A@	c #E1E0E5",
"B@	c #E0E1E6",
"C@	c #DDE1E4",
"D@	c #DBE1E1",
". . . . . . . . . . . . . . . . . . . ",
"+ @ # $ % & * = - ; ; > , - = ' & % + ",
"+ ) ! & ~ { ] ^ / / / ( / _ : < [ & + ",
"} ) ) * | 1 2 : 3 4 5 6 7 ; : 8 9 0 } ",
"a b c d 2 e f g h i j k l m n o p q a ",
"} r s , t u v w x y z A B C D _ ; E } ",
"@ ) n F G H I J K L M N O P Q R S ( @ ",
"T * U V W X Y Z `  ...+.@.#.$.%.&.*.T ",
"=.-.;.>.,.'.).!.~.{.].^./.(._.:.<.[.=.",
"}.+ |.1.2.3.4.5.6.7.8.9.0.a.b.c.d.e.}.",
"+ f.g.h.i.j.k.l.m.n.o.p.q.r.s.t.u.v.+ ",
"w.x.y.z.A.B.C.D.E.F.G.H.I.J.K.L.M.N.w.",
"O.P.Q.R.S.T.U.V.W.X.Y.Z.`. +.+++@+#+O.",
"=.$+%+&+*+=+-+;+>+,+'+)+!+~+{+]+^+/+=.",
"+ (+_+:+<+[+}+|+1+2+|+3+4+5+6+7+8+9++ ",
"=.0+a+b+c+d+e+f+g+h+i+j+k+l+m+n+o+p+=.",
"O.q+r+s+t+u+v+w+x+y+z+A+B+C+D+E+F+G+O.",
"H+I+J+K+L+M+N+O+P+Q+R+S+T+U+V+W+X+Y+H+",
"Z+`+ @.@+@@@#@$@%@&@*@=@-@;@>@,@'@)@Z+",
"!@~@{@]@^@/@(@_@:@<@[@}@|@1@2@3@4@5@!@",
"6@7@8@9@0@a@b@c@d@e@f@g@h@i@3@j@k@l@6@",
"m@n@o@p@q@r@s@t@u@v@w@x@y@z@A@B@C@D@m@",
". . . . . . . . . . . . . . . . . . . "};
