/* XPM */
static char * iconify_inactive_highlight_xpm[] = {
"19 23 333 2",
"  	c None",
". 	c #000000",
"+ 	c #9FBCDC",
"@ 	c #9DBADC",
"# 	c #9CB9DB",
"$ 	c #9DB6DE",
"% 	c #A1BAE2",
"& 	c #A2BBE3",
"* 	c #9FB8E0",
"= 	c #9AB3DB",
"- 	c #9FB6DF",
"; 	c #9FB7DD",
"> 	c #A0B8DE",
", 	c #A1BBE0",
"' 	c #A1BBDE",
") 	c #A2BAD2",
"! 	c #9FB7CF",
"~ 	c #A0B8D0",
"{ 	c #A1B5D6",
"] 	c #A2B6D7",
"^ 	c #A0B4D5",
"/ 	c #9FB3D4",
"( 	c #A4B8D9",
"_ 	c #AABEDF",
": 	c #A6BADB",
"< 	c #9CB0D1",
"[ 	c #A3B7D2",
"} 	c #A3B8D3",
"| 	c #A2B8D0",
"1 	c #9DB1C9",
"2 	c #9AAEC7",
"3 	c #9BAFC8",
"4 	c #9CB0C9",
"5 	c #9CADC9",
"6 	c #A1B2CE",
"7 	c #A2B3CF",
"8 	c #97A8C4",
"9 	c #99AAC6",
"0 	c #9EAFCB",
"a 	c #9BABC4",
"b 	c #A0B0C9",
"c 	c #A1B3CB",
"d 	c #9EB0C8",
"e 	c #99ADC6",
"f 	c #9EAECF",
"g 	c #9DADCF",
"h 	c #9EAED0",
"i 	c #A2B1C8",
"j 	c #99A8BF",
"k 	c #847B90",
"l 	c #4B475A",
"m 	c #171324",
"n 	c #0B0819",
"o 	c #201C30",
"p 	c #3D384C",
"q 	c #838095",
"r 	c #95A4C1",
"s 	c #9DACCB",
"t 	c #A0AFCE",
"u 	c #9DADCE",
"v 	c #9BABCD",
"w 	c #9EB0D4",
"x 	c #9EB0D6",
"y 	c #9CAED4",
"z 	c #9AACD2",
"A 	c #9EA5BB",
"B 	c #654D61",
"C 	c #6C4A58",
"D 	c #AA8C94",
"E 	c #E1CED0",
"F 	c #E7D8DB",
"G 	c #D6C5CB",
"H 	c #A08993",
"I 	c #694B55",
"J 	c #61505D",
"K 	c #9AA3BF",
"L 	c #A1B1D5",
"M 	c #A5BAD9",
"N 	c #A1AECB",
"O 	c #6A4855",
"P 	c #7A464A",
"Q 	c #C48F87",
"R 	c #FBCEBB",
"S 	c #FFEDD4",
"T 	c #FFEBD3",
"U 	c #FFF1DC",
"V 	c #FFDBC9",
"W 	c #C7958A",
"X 	c #80504C",
"Y 	c #765B62",
"Z 	c #A0AEC3",
"` 	c #A6B9D9",
" .	c #A5B9DA",
"..	c #9AB3C9",
"+.	c #9AB2CA",
"@.	c #93ABC3",
"#.	c #8C7A7D",
"$.	c #6D3828",
"%.	c #A56444",
"&.	c #E7A779",
"*.	c #FDC58A",
"=.	c #F9CD8C",
"-.	c #EFC885",
";.	c #FDD190",
">.	c #FAC88D",
",.	c #E4A77A",
"'.	c #995D41",
").	c #7A4E43",
"!.	c #7F6E71",
"~.	c #98AEC5",
"{.	c #9AB2CC",
"].	c #9BAECC",
"^.	c #9BAFCA",
"/.	c #A4A7B5",
"(.	c #6A4334",
"_.	c #97562E",
":.	c #C87C40",
"<.	c #DB9245",
"[.	c #E09E48",
"}.	c #E5AF55",
"|.	c #DEAD50",
"1.	c #E1AC4E",
"2.	c #DCA048",
"3.	c #DE964C",
"4.	c #CF8A51",
"5.	c #88502F",
"6.	c #774F47",
"7.	c #A1A6B7",
"8.	c #97AAC8",
"9.	c #9DB0CE",
"0.	c #9DB1CC",
"a.	c #AFA0A0",
"b.	c #673618",
"c.	c #C0753B",
"d.	c #E89340",
"e.	c #DE8E2D",
"f.	c #E59C35",
"g.	c #EBB048",
"h.	c #E2AB44",
"i.	c #E5A740",
"j.	c #EAA53E",
"k.	c #DE8F28",
"l.	c #E4943D",
"m.	c #B27036",
"n.	c #633118",
"o.	c #B8A9B0",
"p.	c #A5B8D6",
"q.	c #A4B8D3",
"r.	c #B69B96",
"s.	c #733F1A",
"t.	c #DA924A",
"u.	c #DF8F2C",
"v.	c #A35700",
"w.	c #975400",
"x.	c #975F00",
"y.	c #935F00",
"z.	c #985E00",
"A.	c #A05C00",
"B.	c #A04D00",
"C.	c #F19F33",
"D.	c #CE8840",
"E.	c #7E4824",
"F.	c #AE9395",
"G.	c #9FB2D0",
"H.	c #9CAFCD",
"I.	c #98ACC7",
"J.	c #AB8F8B",
"K.	c #784C27",
"L.	c #E4A558",
"M.	c #E7A43B",
"N.	c #9F6200",
"O.	c #956100",
"P.	c #906600",
"Q.	c #966D04",
"R.	c #9E6E08",
"S.	c #A55700",
"T.	c #FAAB35",
"U.	c #F3B05F",
"V.	c #77461B",
"W.	c #AE9090",
"X.	c #96AAC5",
"Y.	c #9B8A89",
"Z.	c #7A5835",
"`.	c #C7964A",
" +	c #FFCF65",
".+	c #FBCF54",
"++	c #FFED6D",
"@+	c #FFED76",
"#+	c #FFEF80",
"$+	c #FFEF84",
"%+	c #FFDD6E",
"&+	c #FFCD50",
"*+	c #FFD15C",
"=+	c #D9A250",
"-+	c #7A5427",
";+	c #A39290",
">+	c #95A8C6",
",+	c #8F8F96",
"'+	c #6A553A",
")+	c #D1B06B",
"!+	c #F4D36C",
"~+	c #FFE769",
"{+	c #FCEC63",
"]+	c #FFFB78",
"^+	c #FFFF8A",
"/+	c #FFFC80",
"(+	c #FFE66C",
"_+	c #FFD35D",
":+	c #FFD16B",
"<+	c #BB954C",
"[+	c #79613B",
"}+	c #898A8B",
"|+	c #9AADCB",
"1+	c #A2B5D3",
"2+	c #9FB3CE",
"3+	c #98A9C3",
"4+	c #796B5E",
"5+	c #7C6732",
"6+	c #C8B25C",
"7+	c #FFF987",
"8+	c #FCFF7E",
"9+	c #F8F979",
"0+	c #FFFE7F",
"a+	c #FFFF8F",
"b+	c #FFF28C",
"c+	c #D9B463",
"d+	c #867036",
"e+	c #746B4E",
"f+	c #92A1AC",
"g+	c #9EB1CF",
"h+	c #99ADC8",
"i+	c #91A2BC",
"j+	c #7F787F",
"k+	c #544629",
"l+	c #887A3D",
"m+	c #C7C169",
"n+	c #F3F58A",
"o+	c #FFFF9C",
"p+	c #FFFF9A",
"q+	c #FFFD8A",
"r+	c #F5E983",
"s+	c #DAC478",
"t+	c #8D7A42",
"u+	c #58532D",
"v+	c #747869",
"w+	c #99ACCA",
"x+	c #93ACCB",
"y+	c #8EA8C1",
"z+	c #8AA4BD",
"A+	c #87859A",
"B+	c #686159",
"C+	c #5A5432",
"D+	c #66632C",
"E+	c #979852",
"F+	c #C9D082",
"G+	c #E3E894",
"H+	c #D4D27B",
"I+	c #B1AB5F",
"J+	c #625A29",
"K+	c #504B2D",
"L+	c #5B604C",
"M+	c #7D8985",
"N+	c #8EA7BD",
"O+	c #92ABC1",
"P+	c #97A9CD",
"Q+	c #95A7CB",
"R+	c #93A5C9",
"S+	c #9593A1",
"T+	c #716D6A",
"U+	c #4E4C3D",
"V+	c #3B3E23",
"W+	c #333818",
"X+	c #353914",
"Y+	c #37380E",
"Z+	c #2F2F09",
"`+	c #494C37",
" @	c #636A62",
".@	c #909C9A",
"+@	c #93A3C5",
"@@	c #98A8CA",
"#@	c #A3B1CC",
"$@	c #9FACCE",
"%@	c #9EABCD",
"&@	c #9DAACC",
"*@	c #9FADCA",
"=@	c #9394A6",
"-@	c #7F818D",
";@	c #696C73",
">@	c #545C5E",
",@	c #535C59",
"'@	c #666B64",
")@	c #727972",
"!@	c #7F8A8C",
"~@	c #8E9DA4",
"{@	c #9BA8CA",
"]@	c #A1AED0",
"^@	c #A4B1D3",
"/@	c #96A9C9",
"(@	c #96AAC2",
"_@	c #97ABC3",
":@	c #8EA4B9",
"<@	c #90A6BB",
"[@	c #8B92AE",
"}@	c #8490AA",
"|@	c #808FA6",
"1@	c #7D8D9D",
"2@	c #7B8B9A",
"3@	c #90A2BA",
"4@	c #92A4BC",
"5@	c #95A7BF",
"6@	c #97A9C1",
"7@	c #98AAC2",
"8@	c #90A8CA",
"9@	c #8BA5C0",
"0@	c #8CA6C1",
"a@	c #8CAAC4",
"b@	c #8BA9C3",
"c@	c #88A6C0",
"d@	c #86A4BE",
"e@	c #85A3BD",
"f@	c #87A5BF",
"g@	c #90A8C4",
"h@	c #90A9C7",
"i@	c #90A8CC",
"j@	c #91A9CD",
"k@	c #8FA9CE",
"l@	c #90AACF",
"m@	c #91ABD0",
"n@	c #92ACD1",
"o@	c #93A9D0",
"p@	c #92A8CF",
"q@	c #90A6CD",
"r@	c #8FA5CC",
". . . . . . . . . . . . . . . . . . . ",
"+ @ # # $ % & * = = $ % - ; > , ' # + ",
") ! ! ~ { ] ^ / ( _ : < [ } } | ~ ~ ) ",
"1 2 3 4 5 6 7 5 8 9 0 6 a b c d e 2 1 ",
"f g g h i j k l m n o p q r s t u v f ",
"w x y z A B C D E F G H I J K g L y w ",
"M : { N O P Q R S T U V W X Y Z `  .M ",
"..+.@.#.$.%.&.*.=.-.;.>.,.'.).!.~.{...",
"].^./.(._.:.<.[.}.|.1.2.3.4.5.6.7.8.].",
"9.0.a.b.c.d.e.f.g.h.i.j.k.l.m.n.o.].9.",
"p.q.r.s.t.u.v.w.x.y.z.A.B.C.D.E.F.G.p.",
"H.I.J.K.L.M.N.O.P.Q.R.N.S.T.U.V.W.].H.",
"H.X.Y.Z.`. +.+++@+#+$+%+&+*+=+-+;+>+H.",
"].X.,+'+)+!+~+{+]+^+/+(+_+:+<+[+}+|+].",
"1+2+3+4+5+6+7+^+8+9+0+a+b+c+d+e+f+g+1+",
"|+h+i+j+k+l+m+n+o+p+q+r+s+t+u+v+3+w+|+",
"x+y+z+A+B+C+D+E+F+G+H+I+J+K+L+M+N+O+x+",
"h+P+Q+R+S+T+U+V+W+X+Y+Z+`+ @.@+@@@v h+",
"#@$@%@&@*@=@-@;@>@,@'@)@!@~@{@]@^@^@#@",
"/@(@_@_@:@<@<@[@}@|@1@2@3@4@5@6@7@7@/@",
"8@9@0@0@a@a@b@c@d@e@d@f@g@g@g@g@g@g@8@",
"h@i@j@j@k@k@k@l@m@n@m@l@o@p@q@r@r@q@h@",
". . . . . . . . . . . . . . . . . . . "};
