/* XPM */
static char * iconify_highlight_xpm[] = {
"19 23 344 2",
"  	c None",
". 	c #797979",
"+ 	c #FEFEFE",
"@ 	c #FFFFFF",
"# 	c #FEFFFF",
"$ 	c #EDF3EF",
"% 	c #FBFFFD",
"& 	c #FCFFFD",
"* 	c #FEFFFD",
"= 	c #FFFFFD",
"- 	c #FFFEFD",
"; 	c #FFFBFB",
"> 	c #F1EBEB",
", 	c #FFFDFD",
"' 	c #F7F9F6",
") 	c #FDFDFD",
"! 	c #FCFEFD",
"~ 	c #F8FDF9",
"{ 	c #FBFDFA",
"] 	c #FDFCFA",
"^ 	c #FBF7F6",
"/ 	c #FFFCFD",
"( 	c #FFFBFD",
"_ 	c #FFFAFB",
": 	c #FFFCFB",
"< 	c #FBFAF8",
"[ 	c #FDFFFC",
"} 	c #F8F8F8",
"| 	c #F0F1EC",
"1 	c #FCFBF7",
"2 	c #FFFEFB",
"3 	c #FEF2F2",
"4 	c #FFF1F2",
"5 	c #FFF7F8",
"6 	c #FDEAEC",
"7 	c #FFF2F3",
"8 	c #FFFAF7",
"9 	c #F7F6F2",
"0 	c #FBFCF7",
"a 	c #EEEEEE",
"b 	c #F6F6F6",
"c 	c #F6F6F4",
"d 	c #F7F6F4",
"e 	c #F4ECEA",
"f 	c #A99F9E",
"g 	c #5E5050",
"h 	c #311E20",
"i 	c #2B1518",
"j 	c #3D272A",
"k 	c #7A6467",
"l 	c #B29EA0",
"m 	c #F1DEE0",
"n 	c #FFFAFA",
"o 	c #FFF5F4",
"p 	c #F7F2EF",
"q 	c #F8F4F1",
"r 	c #FBFBFB",
"s 	c #FCFBF9",
"t 	c #CEC6C4",
"u 	c #786C6C",
"v 	c #625253",
"w 	c #A08C8E",
"x 	c #DDC7CA",
"y 	c #E9CED3",
"z 	c #DFC2C7",
"A 	c #96797E",
"B 	c #785D62",
"C 	c #8F767A",
"D 	c #E2CED0",
"E 	c #FAF0EF",
"F 	c #FFF1F4",
"G 	c #6C4653",
"H 	c #7A464A",
"I 	c #C48F87",
"J 	c #FBCEBB",
"K 	c #FFEDD4",
"L 	c #FFEBD3",
"M 	c #FFF1DC",
"N 	c #FFDBC9",
"O 	c #C7958A",
"P 	c #80504C",
"Q 	c #795A62",
"R 	c #FFE2E7",
"S 	c #FFF7FD",
"T 	c #F7F7F7",
"U 	c #FFF9F9",
"V 	c #BE8C95",
"W 	c #6D3828",
"X 	c #A56444",
"Y 	c #E7A779",
"Z 	c #FDC58A",
"` 	c #F9CD8C",
" .	c #EFC885",
"..	c #FDD190",
"+.	c #FAC88D",
"@.	c #E4A77A",
"#.	c #995D41",
"$.	c #7A4E43",
"%.	c #C48F95",
"&.	c #FFF2FF",
"*.	c #FFFAFF",
"=.	c #EFEFEF",
"-.	c #FAFCF9",
";.	c #F7E5E1",
">.	c #945550",
",.	c #97562E",
"'.	c #C87C40",
").	c #DB9245",
"!.	c #E09E48",
"~.	c #E5AF55",
"{.	c #DEAD50",
"].	c #E1AC4E",
"^.	c #DCA048",
"/.	c #DE964C",
"(.	c #CF8A51",
"_.	c #88502F",
":.	c #9B5B52",
"<.	c #FFD2D9",
"[.	c #FFF2F2",
"}.	c #F3F3F3",
"|.	c #EFDDD1",
"1.	c #783815",
"2.	c #C0753B",
"3.	c #E89340",
"4.	c #DE8E2D",
"5.	c #E59C35",
"6.	c #EBB048",
"7.	c #E2AB44",
"8.	c #E5A740",
"9.	c #EAA53E",
"0.	c #DE8F28",
"a.	c #E4943D",
"b.	c #B27036",
"c.	c #7F3D1A",
"d.	c #F9CBBC",
"e.	c #FFF7EC",
"f.	c #FFFEFF",
"g.	c #E4D1C2",
"h.	c #7E400D",
"i.	c #DA924A",
"j.	c #DF8F2C",
"k.	c #A35700",
"l.	c #975400",
"m.	c #975F00",
"n.	c #935F00",
"o.	c #985E00",
"p.	c #A05C00",
"q.	c #A04D00",
"r.	c #F19F33",
"s.	c #CE8840",
"t.	c #7F3F11",
"u.	c #FED1BA",
"v.	c #FFFBED",
"w.	c #EDEDED",
"x.	c #F1ECF0",
"y.	c #CAB7A8",
"z.	c #864D16",
"A.	c #E4A558",
"B.	c #E7A43B",
"C.	c #9F6200",
"D.	c #956100",
"E.	c #906600",
"F.	c #966D04",
"G.	c #9E6E08",
"H.	c #A55700",
"I.	c #FAAB35",
"J.	c #F3B05F",
"K.	c #804219",
"L.	c #EABFAE",
"M.	c #FCE9E2",
"N.	c #E7E7E7",
"O.	c #E6E4E9",
"P.	c #C1AFA3",
"Q.	c #8F5D28",
"R.	c #C7964A",
"S.	c #FFCF65",
"T.	c #FBCF54",
"U.	c #FFED6D",
"V.	c #FFED76",
"W.	c #FFEF80",
"X.	c #FFEF84",
"Y.	c #FFDD6E",
"Z.	c #FFCD50",
"`.	c #FFD15C",
" +	c #D9A250",
".+	c #86522B",
"++	c #D4B0A0",
"@+	c #F0E3DB",
"#+	c #F1F0F6",
"$+	c #D1C4BB",
"%+	c #9A784B",
"&+	c #D1B06B",
"*+	c #F4D36C",
"=+	c #FFE769",
"-+	c #FCEC63",
";+	c #FFFB78",
">+	c #FFFF8A",
",+	c #FFFC80",
"'+	c #FFE66C",
")+	c #FFD35D",
"!+	c #FFD16B",
"~+	c #BB954C",
"{+	c #97744E",
"]+	c #D6C1AE",
"^+	c #F7F5E8",
"/+	c #FDFEFF",
"(+	c #DED9D5",
"_+	c #A1896D",
":+	c #7C6732",
"<+	c #C8B25C",
"[+	c #FFF987",
"}+	c #FCFF7E",
"|+	c #F8F979",
"1+	c #FFFE7F",
"2+	c #FFFF8F",
"3+	c #FFF28C",
"4+	c #D9B463",
"5+	c #867036",
"6+	c #A58E6E",
"7+	c #E5D9C9",
"8+	c #FEFFF4",
"9+	c #E5EAEE",
"0+	c #DFE0E2",
"a+	c #A79A94",
"b+	c #544629",
"c+	c #887A3D",
"d+	c #C7C169",
"e+	c #F3F58A",
"f+	c #FFFF9C",
"g+	c #FFFF9A",
"h+	c #FFFD8A",
"i+	c #F5E983",
"j+	c #DAC478",
"k+	c #8D7A42",
"l+	c #58532D",
"m+	c #B1A58F",
"n+	c #E1DDD4",
"o+	c #EFF6EF",
"p+	c #E7EFF2",
"q+	c #E1E6EC",
"r+	c #B7B0B8",
"s+	c #686159",
"t+	c #5A5432",
"u+	c #66632C",
"v+	c #979852",
"w+	c #C9D082",
"x+	c #E3E894",
"y+	c #D4D27B",
"z+	c #B1AB5F",
"A+	c #625A29",
"B+	c #504B2D",
"C+	c #5B604C",
"D+	c #C0B9B1",
"E+	c #E7E5E8",
"F+	c #F0F5F8",
"G+	c #E6E6E6",
"H+	c #E2EAED",
"I+	c #DDE4EC",
"J+	c #E1DFED",
"K+	c #BBB4BC",
"L+	c #938B80",
"M+	c #6F654C",
"N+	c #54492B",
"O+	c #564B2B",
"P+	c #554C2D",
"Q+	c #3C3616",
"R+	c #5A5535",
"S+	c #6E684E",
"T+	c #928A7D",
"U+	c #BCB4B2",
"V+	c #DED8E2",
"W+	c #F0ECFB",
"X+	c #F1F0FE",
"Y+	c #F4F4F4",
"Z+	c #F9FFFF",
"`+	c #F7FEFF",
" @	c #FCFCFF",
".@	c #E2DFE8",
"+@	c #CEC9C6",
"@@	c #B9B0A9",
"#@	c #9B908C",
"$@	c #8D827E",
"%@	c #8C8082",
"&@	c #847A7B",
"*@	c #978F8D",
"=@	c #AFA9A9",
"-@	c #D4CED2",
";@	c #F0EAF4",
">@	c #FBF7FF",
",@	c #FDF9FF",
"'@	c #F9F7FF",
")@	c #E8E8E8",
"!@	c #EDF0F5",
"~@	c #ECF1F4",
"{@	c #F2F4F1",
"]@	c #E5E6E0",
"^@	c #DEDED4",
"/@	c #D7D2CC",
"(@	c #C2B9BA",
"_@	c #B5ABB3",
":@	c #B9AEBC",
"<@	c #BCB4C3",
"[@	c #C2BAC7",
"}@	c #CFC9D3",
"|@	c #E0DBE2",
"1@	c #EBE6ED",
"2@	c #EBE9EE",
"3@	c #EAE8EB",
"4@	c #E9EAE5",
"5@	c #DBDBDB",
"6@	c #E6E7EC",
"7@	c #E4E8EB",
"8@	c #DEE3DD",
"9@	c #E7EAE1",
"0@	c #EDF0E5",
"a@	c #E8E9E3",
"b@	c #E0DEDF",
"c@	c #DDDAE1",
"d@	c #DEDBE6",
"e@	c #DBD7E5",
"f@	c #E4E1EC",
"g@	c #E6E3EC",
"h@	c #E9E6ED",
"i@	c #ECEAED",
"j@	c #EBEBE9",
"k@	c #EBEEE7",
"l@	c #E0E0E0",
"m@	c #E2DFE6",
"n@	c #E1E0E8",
"o@	c #E2E5EA",
"p@	c #E5EBEB",
"q@	c #E4EAE6",
"r@	c #DFE6DF",
"s@	c #DFE4DE",
"t@	c #E2E7E1",
"u@	c #E4E9E5",
"v@	c #E7E9E8",
"w@	c #E3E5E4",
"x@	c #E3E3E5",
"y@	c #E2E1E6",
"z@	c #E1E0E5",
"A@	c #E0E1E6",
"B@	c #DDE1E4",
"C@	c #DBE1E1",
". . . . . . . . . . . . . . . . . . . ",
"+ @ # $ % & * = - ; ; > , - = ' & % + ",
"+ ) ! & ~ { ] ^ / / / ( / _ : < [ & + ",
"} ) ) * | 1 2 : 3 4 5 6 7 ; : 8 9 0 } ",
"a b c d 2 e f g h i j k l m n o p q a ",
"} r s , t u v w x y z A B C D _ ; E } ",
"@ ) n F G H I J K L M N O P Q R S ( @ ",
"T * U V W X Y Z `  ...+.@.#.$.%.&.*.T ",
"=.-.;.>.,.'.).!.~.{.].^./.(._.:.<.[.=.",
"}.+ |.1.2.3.4.5.6.7.8.9.0.a.b.c.d.e.}.",
"+ f.g.h.i.j.k.l.m.n.o.p.q.r.s.t.u.v.+ ",
"w.x.y.z.A.B.C.D.E.F.G.C.H.I.J.K.L.M.w.",
"N.O.P.Q.R.S.T.U.V.W.X.Y.Z.`. +.+++@+N.",
"=.#+$+%+&+*+=+-+;+>+,+'+)+!+~+{+]+^+=.",
"+ /+(+_+:+<+[+>+}+|+1+2+3+4+5+6+7+8++ ",
"=.9+0+a+b+c+d+e+f+g+h+i+j+k+l+m+n+o+=.",
"N.p+q+r+s+t+u+v+w+x+y+z+A+B+C+D+E+F+N.",
"G+H+I+J+K+L+M+N+O+P+Q+R+S+T+U+V+W+X+G+",
"Y+Z+`+ @.@+@@@#@$@%@&@*@=@-@;@>@,@'@Y+",
")@!@~@{@]@^@/@(@_@:@<@[@}@|@1@2@3@4@)@",
"5@6@7@8@9@0@a@b@c@d@e@f@g@h@2@i@j@k@5@",
"l@m@n@o@p@q@r@s@t@u@v@w@x@y@z@A@B@C@l@",
". . . . . . . . . . . . . . . . . . . "};
