/* XPM */
static char * maximize_inactive_clicked_xpm[] = {
"19 23 335 2",
"  	c None",
". 	c #000000",
"+ 	c #9FBCDC",
"@ 	c #9DBADC",
"# 	c #9CB9DB",
"$ 	c #9DB6DE",
"% 	c #A1BAE2",
"& 	c #A2BBE3",
"* 	c #9FB8E0",
"= 	c #9AB3DB",
"- 	c #9FB6DF",
"; 	c #9FB7DD",
"> 	c #A0B8DE",
", 	c #A1BBE0",
"' 	c #A1BBDE",
") 	c #A2BAD2",
"! 	c #9FB7CF",
"~ 	c #A0B8D0",
"{ 	c #A1B5D6",
"] 	c #A2B6D7",
"^ 	c #A0B4D5",
"/ 	c #9FB3D4",
"( 	c #A4B8D9",
"_ 	c #AABEDF",
": 	c #A6BADB",
"< 	c #9CB0D1",
"[ 	c #A3B7D2",
"} 	c #A3B8D3",
"| 	c #A2B8D0",
"1 	c #9DB1C9",
"2 	c #9AAEC7",
"3 	c #9BAFC8",
"4 	c #9CB0C9",
"5 	c #9CADC9",
"6 	c #A1B2CE",
"7 	c #A2B3CF",
"8 	c #97A8C4",
"9 	c #99AAC6",
"0 	c #9EAFCB",
"a 	c #9BABC4",
"b 	c #A0B0C9",
"c 	c #A1B3CB",
"d 	c #9EB0C8",
"e 	c #99ADC6",
"f 	c #9EAECF",
"g 	c #9DADCF",
"h 	c #9EAED0",
"i 	c #A2B1C8",
"j 	c #99A8BF",
"k 	c #686F81",
"l 	c #525B6D",
"m 	c #191D2E",
"n 	c #000012",
"o 	c #101629",
"p 	c #3A3F52",
"q 	c #7D8497",
"r 	c #95A4C1",
"s 	c #9DACCB",
"t 	c #A0AFCE",
"u 	c #9DADCE",
"v 	c #9BABCD",
"w 	c #9EB0D4",
"x 	c #9EB0D6",
"y 	c #9CAED4",
"z 	c #9AACD2",
"A 	c #96A4B9",
"B 	c #5B6576",
"C 	c #323B40",
"D 	c #696E6E",
"E 	c #8D9193",
"F 	c #8D8F93",
"G 	c #85888C",
"H 	c #636A6F",
"I 	c #354248",
"J 	c #4B5C69",
"K 	c #96A5C3",
"L 	c #A1B1D5",
"M 	c #A5BAD9",
"N 	c #9CAFCE",
"O 	c #56646E",
"P 	c #303D39",
"Q 	c #677367",
"R 	c #97A290",
"S 	c #ACB2A5",
"T 	c #9FA899",
"U 	c #A7B0A3",
"V 	c #98A397",
"W 	c #55655A",
"X 	c #2F443B",
"Y 	c #576F6F",
"Z 	c #9BAFC6",
"` 	c #A6B9D9",
" .	c #A5B9DA",
"..	c #9AB3C9",
"+.	c #9AB2CA",
"@.	c #93ABC3",
"#.	c #70868D",
"$.	c #182E1E",
"%.	c #32492D",
"&.	c #5A734C",
"*.	c #6C845A",
"=.	c #5C7049",
"-.	c #3C502B",
";.	c #576B45",
">.	c #738A66",
",.	c #536E4A",
"'.	c #365135",
").	c #102E19",
"!.	c #668380",
"~.	c #98AEC5",
"{.	c #9AB2CC",
"].	c #9BAECC",
"^.	c #9BAFCA",
"/.	c #98AABD",
"(.	c #314B3E",
"_.	c #173111",
":.	c #426232",
"<.	c #496B32",
"[.	c #4F7237",
"}.	c #325219",
"|.	c #0B2900",
"1.	c #2A4810",
"2.	c #53743D",
"3.	c #486B35",
"4.	c #395C2C",
"5.	c #193917",
"6.	c #25452F",
"7.	c #99ADBF",
"8.	c #97AAC8",
"9.	c #9DB0CE",
"0.	c #9DB1CC",
"a.	c #91A6AC",
"b.	c #102C11",
"c.	c #2C4F1A",
"d.	c #3F6925",
"e.	c #406D28",
"f.	c #4A7734",
"g.	c #396120",
"h.	c #1C4101",
"i.	c #325916",
"j.	c #4E7630",
"k.	c #416D25",
"l.	c #3D6727",
"m.	c #395E30",
"n.	c #0D2F11",
"o.	c #92ABB0",
"p.	c #A5B8D6",
"q.	c #A4B8D3",
"r.	c #8AA29F",
"s.	c #0B2707",
"t.	c #456D2B",
"u.	c #447322",
"v.	c #0C3E00",
"w.	c #124300",
"x.	c #164400",
"y.	c #154200",
"z.	c #1B4700",
"A.	c #124000",
"B.	c #174800",
"C.	c #47772B",
"D.	c #416B30",
"E.	c #072A05",
"F.	c #8FAFA6",
"G.	c #9FB2D0",
"H.	c #9CAFCD",
"I.	c #98ACC7",
"J.	c #869F99",
"K.	c #122D0D",
"L.	c #517934",
"M.	c #568730",
"N.	c #144900",
"O.	c #1C5201",
"P.	c #28580D",
"Q.	c #2B5A0D",
"R.	c #2C5B08",
"S.	c #1B4B00",
"T.	c #1C5000",
"U.	c #4D802C",
"V.	c #44702F",
"W.	c #0A2D04",
"X.	c #86AB9A",
"Y.	c #96AAC5",
"Z.	c #849D9C",
"`.	c #163213",
" +	c #4B7030",
".+	c #618F39",
"++	c #689D44",
"@+	c #76AB52",
"#+	c #5F903B",
"$+	c #3A6713",
"%+	c #538029",
"&+	c #79A94E",
"*+	c #6FA144",
"=+	c #63953F",
"-+	c #527F3C",
";+	c #143A0F",
">+	c #80A496",
",+	c #95A8C6",
"'+	c #8399A4",
")+	c #3E5A43",
"!+	c #3B5B28",
"~+	c #6F974A",
"{+	c #7DAC50",
"]+	c #84B253",
"^+	c #6C993A",
"/+	c #4C771B",
"(+	c #5E892B",
"_+	c #82AE50",
":+	c #80AF52",
"<+	c #679642",
"[+	c #426B2C",
"}+	c #1D4318",
"|+	c #87A3A3",
"1+	c #9AADCB",
"2+	c #A2B5D3",
"3+	c #9FB3CE",
"4+	c #98A9C3",
"5+	c #577367",
"6+	c #3C5732",
"7+	c #5A7A3D",
"8+	c #85AD5A",
"9+	c #8DB259",
"0+	c #739941",
"a+	c #537720",
"b+	c #678E35",
"c+	c #91B262",
"d+	c #8AB262",
"e+	c #689049",
"f+	c #2A4E1B",
"g+	c #567C58",
"h+	c #8EA4B3",
"i+	c #9EB1CF",
"j+	c #99ADC8",
"k+	c #91A2BC",
"l+	c #5F767C",
"m+	c #3B5740",
"n+	c #375127",
"o+	c #729151",
"p+	c #8EAF62",
"q+	c #99B26E",
"r+	c #91AD67",
"s+	c #96B26F",
"t+	c #93B26F",
"u+	c #688A4E",
"v+	c #385828",
"w+	c #1D401B",
"x+	c #688978",
"y+	c #99ACCA",
"z+	c #93ACCB",
"A+	c #8EA8C1",
"B+	c #8AA4BD",
"C+	c #778A9B",
"D+	c #4C625F",
"E+	c #3B553A",
"F+	c #334E20",
"G+	c #4B6432",
"H+	c #708556",
"I+	c #809467",
"J+	c #768A5E",
"K+	c #546C42",
"L+	c #304926",
"M+	c #1E3D1F",
"N+	c #527362",
"O+	c #718A8E",
"P+	c #8EA7BD",
"Q+	c #92ABC1",
"R+	c #97A9CD",
"S+	c #95A7CB",
"T+	c #93A5C9",
"U+	c #7E919F",
"V+	c #667B7C",
"W+	c #3E5648",
"X+	c #324834",
"Y+	c #2C3C2A",
"Z+	c #273522",
"`+	c #1D2B1C",
" @	c #1C2E1F",
".@	c #375046",
"+@	c #5F7C7A",
"@@	c #7F97A3",
"#@	c #93A3C5",
"$@	c #98A8CA",
"%@	c #A3B1CC",
"&@	c #9FACCE",
"*@	c #9EABCD",
"=@	c #9DAACC",
"-@	c #9FADCA",
";@	c #8799AD",
">@	c #748798",
",@	c #637380",
"'@	c #59666E",
")@	c #546167",
"!@	c #556268",
"~@	c #63747C",
"{@	c #788B9A",
"]@	c #8197AE",
"^@	c #9BA8CA",
"/@	c #A1AED0",
"(@	c #A4B1D3",
"_@	c #96A9C9",
":@	c #96AAC2",
"<@	c #97ABC3",
"[@	c #8EA4B9",
"}@	c #90A6BB",
"|@	c #7F8EAD",
"1@	c #7C88A0",
"2@	c #7A8599",
"3@	c #7E899D",
"4@	c #909FB6",
"5@	c #90A2BA",
"6@	c #92A4BC",
"7@	c #95A7BF",
"8@	c #97A9C1",
"9@	c #98AAC2",
"0@	c #90A8CA",
"a@	c #8BA5C0",
"b@	c #8CA6C1",
"c@	c #8CAAC4",
"d@	c #8BA9C3",
"e@	c #88A6C0",
"f@	c #86A4BE",
"g@	c #85A3BD",
"h@	c #87A5BF",
"i@	c #90A8C4",
"j@	c #90A9C7",
"k@	c #90A8CC",
"l@	c #91A9CD",
"m@	c #8FA9CE",
"n@	c #90AACF",
"o@	c #91ABD0",
"p@	c #92ACD1",
"q@	c #93A9D0",
"r@	c #92A8CF",
"s@	c #90A6CD",
"t@	c #8FA5CC",
". . . . . . . . . . . . . . . . . . . ",
"+ @ # # $ % & * = = $ % - ; > , ' # + ",
") ! ! ~ { ] ^ / ( _ : < [ } } | ~ ~ ) ",
"1 2 3 4 5 6 7 5 8 9 0 6 a b c d e 2 1 ",
"f g g h i j k l m n o p q r s t u v f ",
"w x y z A B C D E F G H I J K g L y w ",
"M : { N O P Q R S T U V W X Y Z `  .M ",
"..+.@.#.$.%.&.*.=.-.;.>.,.'.).!.~.{...",
"].^./.(._.:.<.[.}.|.1.2.3.4.5.6.7.8.].",
"9.0.a.b.c.d.e.f.g.h.i.j.k.l.m.n.o.].9.",
"p.q.r.s.t.u.v.w.x.y.z.A.B.C.D.E.F.G.p.",
"H.I.J.K.L.M.N.O.P.Q.R.S.T.U.V.W.X.].H.",
"H.Y.Z.`. +.+++@+#+$+%+&+*+=+-+;+>+,+H.",
"].Y.'+)+!+~+{+]+^+/+(+_+:+<+[+}+|+1+].",
"2+3+4+5+6+7+8+9+0+a+b+c+d+e+f+g+h+i+2+",
"1+j+k+l+m+n+o+p+q+r+s+t+u+v+w+x+4+y+1+",
"z+A+B+C+D+E+F+G+H+I+J+K+L+M+N+O+P+Q+z+",
"j+R+S+T+U+V+W+X+Y+Z+`+ @.@+@@@#@$@v j+",
"%@&@*@=@-@;@>@,@'@)@!@~@{@]@^@/@(@(@%@",
"_@:@<@<@[@}@}@|@1@2@3@4@5@6@7@8@9@9@_@",
"0@a@b@b@c@c@d@e@f@g@f@h@i@i@i@i@i@i@0@",
"j@k@l@l@m@m@m@n@o@p@o@n@q@r@s@t@t@s@j@",
". . . . . . . . . . . . . . . . . . . "};
