/* XPM */
static char * maximize_highlight_xpm[] = {
"19 23 308 2",
"  	c None",
". 	c #797979",
"+ 	c #FEFEFE",
"@ 	c #FFFFFF",
"# 	c #F8F8F8",
"$ 	c #FAFAFA",
"% 	c #FBFBFB",
"& 	c #FCFCFC",
"* 	c #FDFDFD",
"= 	c #F9F9F9",
"- 	c #F7F7F7",
"; 	c #EFEFEF",
"> 	c #F0F0F0",
", 	c #F4F4F4",
"' 	c #EEEEEE",
") 	c #F6F6F6",
"! 	c #F2F2F2",
"~ 	c #A2A2A2",
"{ 	c #4E4E4E",
"] 	c #1E1E1E",
"^ 	c #040404",
"/ 	c #656565",
"( 	c #9B9B9B",
"_ 	c #E1E1E1",
": 	c #F3F3F3",
"< 	c #D1D1D1",
"[ 	c #5F5F5F",
"} 	c #595959",
"| 	c #828282",
"1 	c #BEBEBE",
"2 	c #D8D8D8",
"3 	c #C8C8C8",
"4 	c #898989",
"5 	c #3E3E3E",
"6 	c #8E8E8E",
"7 	c #CACACA",
"8 	c #FBF9FC",
"9 	c #FEFFFF",
"0 	c #E7EEE7",
"a 	c #53616A",
"b 	c #3B4C46",
"c 	c #95A693",
"d 	c #D9E9CF",
"e 	c #F7FFEE",
"f 	c #E5F1DD",
"g 	c #F0FDEB",
"h 	c #DAEBD9",
"i 	c #7A9181",
"j 	c #3A5449",
"k 	c #536C69",
"l 	c #E8EFE8",
"m 	c #FDFBFE",
"n 	c #FFFDFF",
"o 	c #FBFFFF",
"p 	c #809785",
"q 	c #1D3825",
"r 	c #486841",
"s 	c #82A56D",
"t 	c #9CBE81",
"u 	c #84A169",
"v 	c #56733D",
"w 	c #7D9A64",
"x 	c #A6C792",
"y 	c #789E6B",
"z 	c #4E744B",
"A 	c #14381E",
"B 	c #869888",
"C 	c #FFFCFF",
"D 	c #F8F3F9",
"E 	c #E0EAE2",
"F 	c #4B6C4D",
"G 	c #204718",
"H 	c #5F8E48",
"I 	c #689948",
"J 	c #72A44F",
"K 	c #487524",
"L 	c #103B00",
"M 	c #3C6717",
"N 	c #78A757",
"O 	c #679A4B",
"P 	c #51843F",
"Q 	c #245221",
"R 	c #4E684D",
"S 	c #E0E9E6",
"T 	c #FEF8FF",
"U 	c #F8F9F4",
"V 	c #CCDBC6",
"W 	c #193F10",
"X 	c #3F7225",
"Y 	c #5B9735",
"Z 	c #5C9D39",
"` 	c #6BAB4A",
" .	c #528B2D",
"..	c #275E01",
"+.	c #48801F",
"@.	c #70AA46",
"#.	c #5E9D35",
"$.	c #589538",
"%.	c #518844",
"&.	c #1E3C16",
"*.	c #CBD7CB",
"=.	c #FCFAFF",
"-.	c #FEFFF6",
";.	c #CCDFC3",
">.	c #083100",
",.	c #649D3E",
"'.	c #62A531",
").	c #115900",
"!.	c #196000",
"~.	c #1F6200",
"{.	c #1E5F00",
"].	c #266600",
"^.	c #195C00",
"/.	c #206700",
"(.	c #66AB3E",
"_.	c #5E9945",
":.	c #153705",
"<.	c #CCDBC8",
"[.	c #EDEDED",
"}.	c #F5FBEF",
"|.	c #C1D6B5",
"1.	c #163F03",
"2.	c #74AE4A",
"3.	c #7CC245",
"4.	c #1D6800",
"5.	c #287501",
"6.	c #3A7F12",
"7.	c #3D8112",
"8.	c #3F830C",
"9.	c #266C00",
"0.	c #277300",
"a.	c #6EB83F",
"b.	c #61A143",
"c.	c #1F4208",
"d.	c #C3D6BA",
"e.	c #F5F7F2",
"f.	c #E7E7E7",
"g.	c #DCE2D8",
"h.	c #AFC2A4",
"i.	c #355C23",
"j.	c #6CA145",
"k.	c #8BCD52",
"l.	c #96E162",
"m.	c #A9F676",
"n.	c #89CF55",
"o.	c #53941C",
"p.	c #77B93B",
"q.	c #AEF470",
"r.	c #9FE862",
"s.	c #8FD75A",
"t.	c #76B656",
"u.	c #315317",
"v.	c #B4C4A7",
"w.	c #E7EAE3",
"x.	c #E3E5E0",
"y.	c #B9C8B1",
"z.	c #5E804E",
"A.	c #55833A",
"B.	c #9FD96B",
"C.	c #B4F773",
"D.	c #BEFF77",
"E.	c #9BDB53",
"F.	c #6DAB26",
"G.	c #87C53E",
"H.	c #BBFB73",
"I.	c #B8FC75",
"J.	c #94D85F",
"K.	c #5F9A40",
"L.	c #5A7741",
"M.	c #BBC9AF",
"N.	c #EEEFE9",
"O.	c #FFFFFD",
"P.	c #D6E1D0",
"Q.	c #7F9972",
"R.	c #517643",
"S.	c #81AF57",
"T.	c #C0FA81",
"U.	c #CBFF80",
"V.	c #A6DD5D",
"W.	c #77AB2D",
"X.	c #95CC4D",
"Y.	c #D1FF8E",
"Z.	c #C7FF8C",
"`.	c #96D06A",
" +	c #3C7026",
".+	c #849B6F",
"++	c #D5DECB",
"@+	c #FFFFFA",
"#+	c #F7F3F2",
"$+	c #DAE0D2",
"%+	c #99A98C",
"&+	c #3F5B44",
"*+	c #4A6D35",
"=+	c #A4D174",
"-+	c #CCFC8E",
";+	c #DCFF9E",
">+	c #D1FA94",
",+	c #D8FFA0",
"'+	c #D3FFA0",
")+	c #96C670",
"!+	c #507F39",
"~+	c #244F21",
"{+	c #95A389",
"]+	c #D9DCD3",
"^+	c #FBF7F6",
"/+	c #FCF6F6",
"(+	c #ECEBE6",
"_+	c #BBC4B1",
":+	c #4C625F",
"<+	c #3D573C",
"[+	c #416229",
"}+	c #6C9048",
"|+	c #A1C07C",
"1+	c #B9D694",
"2+	c #A9C787",
"3+	c #799B5F",
"4+	c #446A37",
"5+	c #264C27",
"6+	c #527362",
"7+	c #BBC1B7",
"8+	c #E9E7E8",
"9+	c #FCF6F8",
"0+	c #E6E6E6",
"a+	c #F3EAED",
"b+	c #F0EAEA",
"c+	c #D4D6D1",
"d+	c #B3BEB0",
"e+	c #8EA086",
"f+	c #647A56",
"g+	c #3D562C",
"h+	c #344E1E",
"i+	c #3A5222",
"j+	c #405828",
"k+	c #4F6638",
"l+	c #60754E",
"m+	c #7F9177",
"n+	c #ACB6AB",
"o+	c #D9DADC",
"p+	c #EBE6ED",
"q+	c #EEE4EC",
"r+	c #FFF8FD",
"s+	c #FAF8FD",
"t+	c #EBEDEC",
"u+	c #C6D0C8",
"v+	c #A4B0A4",
"w+	c #889685",
"x+	c #7E8D7A",
"y+	c #74816F",
"z+	c #6E7969",
"A+	c #859080",
"B+	c #A8B2A7",
"C+	c #C9D3CB",
"D+	c #E7EDED",
"E+	c #FFF8FF",
"F+	c #FCF2FB",
"G+	c #E8E8E8",
"H+	c #EFE5EE",
"I+	c #F2EAF5",
"J+	c #F0EAF4",
"K+	c #E9E8F0",
"L+	c #E6E9EE",
"M+	c #CFD4D8",
"N+	c #BAC2C4",
"O+	c #B5BDBF",
"P+	c #B3B8BC",
"Q+	c #B4B7BE",
"R+	c #C2C2CE",
"S+	c #D4D4DE",
"T+	c #E1E6E9",
"U+	c #E8EDF1",
"V+	c #F0EEFB",
"W+	c #F0E9F9",
"X+	c #EEE6F1",
"Y+	c #DBDBDB",
"Z+	c #E9E1EC",
"`+	c #E9E1EE",
" @	c #E9E3EF",
".@	c #E7E4ED",
"+@	c #EAEAF2",
"@@	c #E3E6ED",
"#@	c #DEE1E8",
"$@	c #DADDE4",
"%@	c #DCDCE8",
"&@	c #DFDDEB",
"*@	c #E2DDF1",
"=@	c #E1DFED",
"-@	c #E4E9ED",
";@	c #E1E6EA",
">@	c #E5E3F1",
",@	c #ECE5F5",
"'@	c #EEE8F4",
")@	c #E0E0E0",
"!@	c #E3E0E9",
"~@	c #E3DDE7",
"{@	c #E3E0E7",
"]@	c #E5E3E6",
"^@	c #E1E3E2",
"/@	c #E3E8E4",
"(@	c #E4E9E5",
"_@	c #DEE2E1",
":@	c #DBDCDE",
"<@	c #DEDDE2",
"[@	c #E6E0EA",
"}@	c #E6E5EB",
"|@	c #DCE2E0",
"1@	c #DBE4E3",
"2@	c #E0E3EC",
"3@	c #E6E3EE",
". . . . . . . . . . . . . . . . . . . ",
"+ + @ @ @ # + @ @ $ % @ @ @ & * @ * + ",
"+ @ = + - @ % $ % + @ @ ; @ * & + & + ",
"# & > + + @ # @ @ & , % + @ @ @ + + # ",
"' ) ! @ * + ~ { ] ^ ] / ( _ , @ = : ' ",
"# + @ @ < [ } | 1 2 3 4 5 6 7 + @ - # ",
"@ 8 9 0 a b c d e f g h i j k l 9 m @ ",
"- n o p q r s t u v w x y z A B o C - ",
"; D E F G H I J K L M N O P Q R S T ; ",
": U V W X Y Z `  ...+.@.#.$.%.&.*.=.: ",
"+ -.;.>.,.'.).!.~.{.].^./.(._.:.<.@ + ",
"[.}.|.1.2.3.4.5.6.7.8.9.0.a.b.c.d.e.[.",
"f.g.h.i.j.k.l.m.n.o.p.q.r.s.t.u.v.w.f.",
"; x.y.z.A.B.C.D.E.F.G.H.I.J.K.L.M.N.; ",
"+ O.P.Q.R.S.T.U.V.W.X.Y.Z.`. +.+++@++ ",
"; #+$+%+&+*+=+-+;+>+,+'+)+!+~+{+]+^+; ",
"f./+(+_+:+<+[+}+|+1+2+3+4+5+6+7+8+9+f.",
"0+a+b+c+d+e+f+g+h+i+j+k+l+m+n+o+p+q+0+",
", r+C s+t+u+v+w+x+y+z+A+B+C+D+n E+F+, ",
"G+H+I+J+K+L+M+N+O+P+Q+R+S+T+U+V+W+X+G+",
"Y+Z+`+ @.@+@@@#@$@%@&@*@=@-@;@>@,@'@Y+",
")@!@~@{@]@^@/@(@_@:@<@[@}@|@1@2@>@3@)@",
". . . . . . . . . . . . . . . . . . . "};
