/* XPM */
static char * one_window_inactive_highlight_xpm[] = {
"19 23 332 2",
"  	c None",
". 	c #000000",
"+ 	c #9FBCDC",
"@ 	c #9DBADC",
"# 	c #9CB9DB",
"$ 	c #9DB6DE",
"% 	c #A1BAE2",
"& 	c #A2BBE3",
"* 	c #9FB8E0",
"= 	c #9AB3DB",
"- 	c #9FB6DF",
"; 	c #9FB7DD",
"> 	c #A0B8DE",
", 	c #A1BBE0",
"' 	c #A1BBDE",
") 	c #A2BAD2",
"! 	c #9FB7CF",
"~ 	c #A0B8D0",
"{ 	c #A1B5D6",
"] 	c #A2B6D7",
"^ 	c #A0B4D5",
"/ 	c #9FB3D4",
"( 	c #A4B8D9",
"_ 	c #AABEDF",
": 	c #A6BADB",
"< 	c #9CB0D1",
"[ 	c #A3B7D2",
"} 	c #A3B8D3",
"| 	c #A2B8D0",
"1 	c #9DB1C9",
"2 	c #9AAEC7",
"3 	c #9BAFC8",
"4 	c #9CB0C9",
"5 	c #9CADC9",
"6 	c #A1B2CE",
"7 	c #A2B3CF",
"8 	c #97A8C4",
"9 	c #99AAC6",
"0 	c #9EAFCB",
"a 	c #9BABC4",
"b 	c #A0B0C9",
"c 	c #A1B3CB",
"d 	c #9EB0C8",
"e 	c #99ADC6",
"f 	c #9EAECF",
"g 	c #9DADCF",
"h 	c #9EAED0",
"i 	c #A2B1C8",
"j 	c #99A8BF",
"k 	c #9190AD",
"l 	c #666874",
"m 	c #1F242B",
"n 	c #090E0A",
"o 	c #22221C",
"p 	c #65636C",
"q 	c #9391B2",
"r 	c #95A4C1",
"s 	c #9DACCB",
"t 	c #A0AFCE",
"u 	c #9DADCE",
"v 	c #9BABCD",
"w 	c #9EB0D4",
"x 	c #9EB0D6",
"y 	c #9CAED4",
"z 	c #9AACD2",
"A 	c #95A4B9",
"B 	c #807999",
"C 	c #443751",
"D 	c #878593",
"E 	c #BABAC4",
"F 	c #CCCACF",
"G 	c #C5BFC3",
"H 	c #8C828D",
"I 	c #4C3F53",
"J 	c #807D99",
"K 	c #94A3C4",
"L 	c #A1B1D5",
"M 	c #A5BAD9",
"N 	c #9DB1D2",
"O 	c #797397",
"P 	c #5D4277",
"Q 	c #9880B0",
"R 	c #E8DAFE",
"S 	c #F3E5FF",
"T 	c #ECDDFC",
"U 	c #F1DEFE",
"V 	c #E8D1FB",
"W 	c #9F87B9",
"X 	c #483660",
"Y 	c #817D99",
"Z 	c #9BAFCA",
"` 	c #A6B9D9",
" .	c #A5B9DA",
"..	c #9AB3C9",
"+.	c #9AB2CA",
"@.	c #93ABC3",
"#.	c #9097B9",
"$.	c #462763",
"%.	c #744A96",
"&.	c #B18CD2",
"*.	c #C3A7E2",
"=.	c #D3B3F6",
"-.	c #E3C0FF",
";.	c #D3AEF1",
">.	c #BA91DF",
",.	c #B991E7",
"'.	c #7654A1",
").	c #4A2F66",
"!.	c #8B8FAD",
"~.	c #98AEC5",
"{.	c #9AB2CC",
"].	c #9BAECC",
"^.	c #9498BD",
"/.	c #6B608B",
"(.	c #6C3D8E",
"_.	c #874BAF",
":.	c #915AB8",
"<.	c #A97CCF",
"[.	c #B07AD8",
"}.	c #A56FC7",
"|.	c #B77FD8",
"1.	c #AF75D9",
"2.	c #9B61CF",
"3.	c #733FAB",
"4.	c #592E88",
"5.	c #6D5A93",
"6.	c #989CC1",
"7.	c #97AAC8",
"8.	c #9DB0CE",
"9.	c #9DB1CC",
"0.	c #979BC0",
"a.	c #452962",
"b.	c #77399C",
"c.	c #AA5CD4",
"d.	c #B46EE0",
"e.	c #9157BB",
"f.	c #7A379E",
"g.	c #5C1978",
"h.	c #7D3893",
"i.	c #A761C4",
"j.	c #A25ECF",
"k.	c #9453CB",
"l.	c #854DBA",
"m.	c #471E75",
"n.	c #9DA2C6",
"o.	c #A5B8D6",
"p.	c #A4B8D3",
"q.	c #9EA3C7",
"r.	c #370F52",
"s.	c #9E56C4",
"t.	c #C16AED",
"u.	c #BE6EEB",
"v.	c #8E4AB9",
"w.	c #6F2489",
"x.	c #7C318C",
"y.	c #70257A",
"z.	c #9347A2",
"A.	c #C97DEA",
"B.	c #BE77EF",
"C.	c #9A5BCE",
"D.	c #3D056F",
"E.	c #A1A6CA",
"F.	c #9FB2D0",
"G.	c #9CAFCD",
"H.	c #98ACC7",
"I.	c #9397BC",
"J.	c #56207A",
"K.	c #B76FEC",
"L.	c #C87BFB",
"M.	c #C783EA",
"N.	c #7D408D",
"O.	c #763C90",
"P.	c #894D97",
"Q.	c #75337A",
"R.	c #9951A3",
"S.	c #DC91F6",
"T.	c #C77DEE",
"U.	c #B36BDB",
"V.	c #5D1A83",
"W.	c #96AAC5",
"X.	c #9195BA",
"Y.	c #673C87",
"Z.	c #B06BDF",
"`.	c #DA91FF",
" +	c #EBA8FF",
".+	c #AA6CB5",
"++	c #8A559B",
"@+	c #975FA0",
"#+	c #905494",
"$+	c #A461AE",
"%+	c #ECA6FF",
"&+	c #DE99FF",
"*+	c #AE6CD0",
"=+	c #703E8E",
"-+	c #8B8FB4",
";+	c #95A8C6",
">+	c #90A1BB",
",+	c #7D689B",
"'+	c #9A5EBE",
")+	c #D693FA",
"!+	c #FEBDFF",
"~+	c #DB9FDF",
"{+	c #B286B9",
"]+	c #9E6E9E",
"^+	c #CA95CB",
"/+	c #DEA5EA",
"(+	c #F7B9FF",
"_+	c #E0A5FF",
":+	c #A571BC",
"<+	c #7C6394",
"[+	c #8FA0BA",
"}+	c #9AADCB",
"|+	c #A2B5D3",
"1+	c #9FB3CE",
"2+	c #98A9C3",
"3+	c #908EB4",
"4+	c #885AA2",
"5+	c #BD87D5",
"6+	c #F6BDFF",
"7+	c #FFCEFF",
"8+	c #FFE0FF",
"9+	c #FDD8F9",
"0+	c #FFDFFF",
"a+	c #F9CAFF",
"b+	c #FECCFF",
"c+	c #BB8ED3",
"d+	c #795384",
"e+	c #8F8CB0",
"f+	c #97A8C2",
"g+	c #9EB1CF",
"h+	c #99ADC8",
"i+	c #91A2BC",
"j+	c #888CB1",
"k+	c #7D6E93",
"l+	c #946CA1",
"m+	c #C89CCD",
"n+	c #F9CBF0",
"o+	c #F8DFF4",
"p+	c #FFE6F9",
"q+	c #FFE1F9",
"r+	c #E5C2EA",
"s+	c #D0ABDF",
"t+	c #846797",
"u+	c #756A8A",
"v+	c #898CB0",
"w+	c #99ACCA",
"x+	c #93ACCB",
"y+	c #8EA8C1",
"z+	c #8AA4BD",
"A+	c #88A2BB",
"B+	c #7E90A4",
"C+	c #796E8C",
"D+	c #7A5D79",
"E+	c #95788E",
"F+	c #CFBCCF",
"G+	c #C1ACBB",
"H+	c #BAA4B1",
"I+	c #A28AA0",
"J+	c #786080",
"K+	c #706D8C",
"L+	c #8099AF",
"M+	c #87A0B6",
"N+	c #8EA7BD",
"O+	c #92ABC1",
"P+	c #97A9CD",
"Q+	c #95A7CB",
"R+	c #93A5C9",
"S+	c #919EBE",
"T+	c #8895B5",
"U+	c #79769A",
"V+	c #685E73",
"W+	c #4A3D56",
"X+	c #5B4D5A",
"Y+	c #564851",
"Z+	c #60576A",
"`+	c #7F7DA3",
" @	c #8696B8",
".@	c #8D9DBF",
"+@	c #93A3C5",
"@@	c #98A8CA",
"#@	c #A3B1CC",
"$@	c #9FACCE",
"%@	c #9EABCD",
"&@	c #9DAACC",
"*@	c #9FADCA",
"=@	c #9AA8C5",
"-@	c #93A1BE",
";@	c #8B99B6",
">@	c #8694B1",
",@	c #8593B0",
"'@	c #8997B4",
")@	c #8D9BB8",
"!@	c #93A0C2",
"~@	c #96A3C5",
"{@	c #9BA8CA",
"]@	c #A1AED0",
"^@	c #A4B1D3",
"/@	c #96A9C9",
"(@	c #96AAC2",
"_@	c #97ABC3",
":@	c #8EA4B9",
"<@	c #90A6BB",
"[@	c #8DA3B8",
"}@	c #899FB4",
"|@	c #879DB2",
"1@	c #8CA2B7",
"2@	c #90A2BA",
"3@	c #92A4BC",
"4@	c #95A7BF",
"5@	c #97A9C1",
"6@	c #98AAC2",
"7@	c #90A8CA",
"8@	c #8BA5C0",
"9@	c #8CA6C1",
"0@	c #8CAAC4",
"a@	c #8BA9C3",
"b@	c #88A6C0",
"c@	c #86A4BE",
"d@	c #85A3BD",
"e@	c #87A5BF",
"f@	c #90A8C4",
"g@	c #90A9C7",
"h@	c #90A8CC",
"i@	c #91A9CD",
"j@	c #8FA9CE",
"k@	c #90AACF",
"l@	c #91ABD0",
"m@	c #92ACD1",
"n@	c #93A9D0",
"o@	c #92A8CF",
"p@	c #90A6CD",
"q@	c #8FA5CC",
". . . . . . . . . . . . . . . . . . . ",
"+ @ # # $ % & * = = $ % - ; > , ' # + ",
") ! ! ~ { ] ^ / ( _ : < [ } } | ~ ~ ) ",
"1 2 3 4 5 6 7 5 8 9 0 6 a b c d e 2 1 ",
"f g g h i j k l m n o p q r s t u v f ",
"w x y z A B C D E F G H I J K g L y w ",
"M : { N O P Q R S T U V W X Y Z `  .M ",
"..+.@.#.$.%.&.*.=.-.;.>.,.'.).!.~.{...",
"].Z ^./.(._.:.<.[.}.|.1.2.3.4.5.6.7.].",
"8.9.0.a.b.c.d.e.f.g.h.i.j.k.l.m.n.].8.",
"o.p.q.r.s.t.u.v.w.x.y.z.A.B.C.D.E.F.o.",
"G.H.I.J.K.L.M.N.O.P.Q.R.S.T.U.V.0.].G.",
"G.W.X.Y.Z.`. +.+++@+#+$+%+&+*+=+-+;+G.",
"].W.>+,+'+)+!+~+{+]+^+/+(+_+:+<+[+}+].",
"|+1+2+3+4+5+6+7+8+9+0+a+b+c+d+e+f+g+|+",
"}+h+i+j+k+l+m+n+o+p+q+r+s+t+u+v+2+w+}+",
"x+y+z+A+B+C+D+E+F+G+H+I+J+K+L+M+N+O+x+",
"h+P+Q+R+S+T+U+V+W+X+Y+Z+`+ @.@+@@@v h+",
"#@$@%@&@*@=@-@;@>@,@'@)@!@~@{@]@^@^@#@",
"/@(@_@_@:@<@<@[@}@|@}@1@2@3@4@5@6@6@/@",
"7@8@9@9@0@0@a@b@c@d@c@e@f@f@f@f@f@f@7@",
"g@h@i@i@j@j@j@k@l@m@l@k@n@o@p@q@q@p@g@",
". . . . . . . . . . . . . . . . . . . "};
