/* XPM */
static char * one_window_clicked_xpm[] = {
"19 23 300 2",
"  	c None",
". 	c #797979",
"+ 	c #FEFEFE",
"@ 	c #FDFDFD",
"# 	c #FBFBFB",
"$ 	c #FAFAFA",
"% 	c #F9F9F9",
"& 	c #FFFFFF",
"* 	c #FCFCFC",
"= 	c #F8F8F8",
"- 	c #F7F7F7",
"; 	c #FCF7F1",
"> 	c #EEFCE5",
", 	c #EDFCE9",
"' 	c #F9FEFA",
") 	c #FCF7FE",
"! 	c #FFFEFF",
"~ 	c #EEF3EC",
"{ 	c #F5FEFF",
"] 	c #F0F6F4",
"^ 	c #F5F7EA",
"/ 	c #FEFBF4",
"( 	c #F9F4FA",
"_ 	c #FFFCFF",
": 	c #F3F2F8",
"< 	c #F8FAF7",
"[ 	c #F4F4F4",
"} 	c #EEEEEE",
"| 	c #F6F5F0",
"1 	c #DEEDDA",
"2 	c #EAF8EB",
"3 	c #FDFEFF",
"4 	c #E7DFEE",
"5 	c #9E98A2",
"6 	c #575B5A",
"7 	c #171C20",
"8 	c #090E0A",
"9 	c #1A1A10",
"0 	c #5B5853",
"a 	c #A099A0",
"b 	c #E5DFE9",
"c 	c #F6F6F4",
"d 	c #E8ECDD",
"e 	c #F3F3F3",
"f 	c #EFEFEF",
"g 	c #FEFFFB",
"h 	c #E8F6E9",
"i 	c #F5FFFC",
"j 	c #D2CDE1",
"k 	c #786988",
"l 	c #443751",
"m 	c #75737F",
"n 	c #8D8D94",
"o 	c #908E92",
"p 	c #8B868A",
"q 	c #6A626B",
"r 	c #423748",
"s 	c #78707F",
"t 	c #D8D7D3",
"u 	c #FFFFED",
"v 	c #F4FAF6",
"w 	c #F7FFFD",
"x 	c #E8ECF8",
"y 	c #706087",
"z 	c #5D4275",
"A 	c #766388",
"B 	c #A198B1",
"C 	c #A99FB2",
"D 	c #A499AF",
"E 	c #A89AB1",
"F 	c #A191AE",
"G 	c #6F5E80",
"H 	c #382A4B",
"I 	c #6F6475",
"J 	c #FAF5F1",
"K 	c #EAF3F0",
"L 	c #EDF5F8",
"M 	c #9D94B1",
"N 	c #462763",
"O 	c #5B3A76",
"P 	c #7B6292",
"Q 	c #88749D",
"R 	c #937CAB",
"S 	c #9E85B2",
"T 	c #9379A8",
"U 	c #81659B",
"V 	c #8065A1",
"W 	c #523A70",
"X 	c #3A2550",
"Y 	c #9B88A8",
"Z 	c #FBFFFF",
"` 	c #E0DFED",
" .	c #604A79",
"..	c #60377F",
"+.	c #5E357A",
"@.	c #653F80",
"#.	c #765690",
"$.	c #7B5596",
"%.	c #734E8A",
"&.	c #805896",
"*.	c #7A5297",
"=.	c #6C4490",
"-.	c #502C77",
";.	c #3E205E",
">.	c #5B3B7B",
",.	c #E6E6E6",
"'.	c #EEEFF3",
").	c #DBD3EA",
"!.	c #3B1955",
"~.	c #5D2D7A",
"{.	c #764094",
"].	c #7D4D9C",
"^.	c #653D82",
"/.	c #55266E",
"(.	c #401253",
"_.	c #572767",
":.	c #744488",
"<.	c #714190",
"[.	c #673A8D",
"}.	c #5D3581",
"|.	c #300954",
"1.	c #D9D9D9",
"2.	c #EDEDED",
"3.	c #F1F0F5",
"4.	c #DED1EB",
"5.	c #360D51",
"6.	c #723E8C",
"7.	c #8649A5",
"8.	c #844DA3",
"9.	c #623480",
"0.	c #4E195F",
"a.	c #562262",
"b.	c #4E1A55",
"c.	c #673171",
"d.	c #8C57A3",
"e.	c #8453A6",
"f.	c #6B3F8F",
"g.	c #2C034F",
"h.	c #F4EFEC",
"i.	c #C3A3CC",
"j.	c #561E79",
"k.	c #804EA4",
"l.	c #8B56AE",
"m.	c #8A5BA3",
"n.	c #572C62",
"o.	c #522A64",
"p.	c #5F3569",
"q.	c #522455",
"r.	c #6B3971",
"s.	c #9965AB",
"t.	c #8A57A5",
"u.	c #7C4A99",
"v.	c #41115B",
"w.	c #B7B7B7",
"x.	c #EBEBEB",
"y.	c #E7E7E7",
"z.	c #E4E3DF",
"A.	c #BDA3C6",
"B.	c #622E80",
"C.	c #7E4CA0",
"D.	c #9865B2",
"E.	c #A375B2",
"F.	c #764B7E",
"G.	c #603B6C",
"H.	c #69426F",
"I.	c #643A67",
"J.	c #724479",
"K.	c #A473B2",
"L.	c #9A6BB2",
"M.	c #794B90",
"N.	c #4E2462",
"O.	c #AEAEAE",
"P.	c #E1E1E1",
"Q.	c #DCE1DD",
"R.	c #C4B4CE",
"S.	c #774F8E",
"T.	c #784994",
"U.	c #9467AD",
"V.	c #B184B2",
"W.	c #996F9B",
"X.	c #7B5D80",
"Y.	c #6E4D6E",
"Z.	c #8C678D",
"`.	c #9A73A3",
" +	c #AC80B2",
".+	c #9C73B2",
"++	c #734E83",
"@+	c #5C3665",
"#+	c #C2C2C2",
"$+	c #F1FCF6",
"%+	c #E2DAE7",
"&+	c #9A7DA9",
"*+	c #795091",
"=+	c #845E94",
"-+	c #AB84B2",
";+	c #B28FB2",
">+	c #B29CB2",
",+	c #B096AD",
"'+	c #B29BB2",
")+	c #AD8CB2",
"!+	c #B18EB2",
"~+	c #826293",
"{+	c #543A5C",
"]+	c #917591",
"^+	c #E0EBE7",
"/+	c #D7D7D9",
"(+	c #A091A4",
"_+	c #785983",
":+	c #74557F",
"<+	c #8B6C8F",
"[+	c #AD8DA7",
"}+	c #AD9BA9",
"|+	c #B2A0AD",
"1+	c #B29DAD",
"2+	c #9F87A3",
"3+	c #90779B",
"4+	c #5C4869",
"5+	c #503E54",
"6+	c #AA9BA2",
"7+	c #D5D5D5",
"8+	c #E7F0EF",
"9+	c #DEE1D8",
"0+	c #BBB5B5",
"a+	c #887A8B",
"b+	c #745D78",
"c+	c #5F485E",
"d+	c #675362",
"e+	c #908390",
"f+	c #867782",
"g+	c #81727B",
"h+	c #71606F",
"i+	c #534359",
"j+	c #50445A",
"k+	c #8D8590",
"l+	c #B3B3AB",
"m+	c #D3D3D3",
"n+	c #E5E5E5",
"o+	c #E9EAEC",
"p+	c #E2E6D7",
"q+	c #D6D9C8",
"r+	c #B4B0AD",
"s+	c #897F88",
"t+	c #6D5F6C",
"u+	c #53464E",
"v+	c #352B3C",
"w+	c #3F353F",
"x+	c #3A3033",
"y+	c #42363B",
"z+	c #655968",
"A+	c #8A8393",
"B+	c #ABACAE",
"C+	c #D3DBD0",
"D+	c #E3E3E3",
"E+	c #F3F1F4",
"F+	c #EEF1DE",
"G+	c #F2F8DE",
"H+	c #E5E9DA",
"I+	c #C2C2C0",
"J+	c #AAA5A9",
"K+	c #898385",
"L+	c #7F728C",
"M+	c #817684",
"N+	c #7B7170",
"O+	c #897F7E",
"P+	c #AAA3AA",
"Q+	c #C6C5CD",
"R+	c #DAE0E0",
"S+	c #EEFAEE",
"T+	c #F0F0F0",
"U+	c #F6F6F6",
"V+	c #E8E8E8",
"W+	c #E5E5E7",
"X+	c #E7E7E9",
"Y+	c #EAEAEC",
"Z+	c #E8E8EA",
"`+	c #DFDFE1",
" @	c #D0D0D2",
".@	c #C5C5C7",
"+@	c #B2B2B2",
"@@	c #ACACAC",
"#@	c #B5B5B5",
"$@	c #C6C6C6",
"%@	c #D7D7D7",
"&@	c #E9E9E9",
"*@	c #E4E4E4",
"=@	c #DBDBDB",
"-@	c #DEDEE0",
";@	c #E0E0E2",
">@	c #D9D9DB",
",@	c #D4D4D6",
"'@	c #DDDDDD",
")@	c #D2D2D2",
"!@	c #D6D6D6",
"~@	c #DCDCDC",
"{@	c #DFDFDF",
"]@	c #E2E2E2",
"^@	c #E0E0E0",
"/@	c #E1E1E3",
"(@	c #E2E2E4",
"_@	c #E3E3E5",
". . . . . . . . . . . . . . . . . . . ",
"+ + + + @ # $ % + + & & + + @ @ * = + ",
"+ * @ + & + + + - $ + + * $ * + & = + ",
"= ; > , ' ) ! ~ { ] ^ / ( _ : < - [ = ",
"} | 1 2 3 4 5 6 7 8 9 0 a b c d e f } ",
"= g h i j k l m n o p q r s t u = e = ",
"& v w x y z A B C D E F G H I J & @ & ",
"- K L M N O P Q R S T U V W X Y % $ - ",
"f Z `  ...+.@.#.$.%.&.*.=.-.;.>.,.} f ",
"e '.).!.~.{.].^./.(._.:.<.[.}.|.1.2.e ",
"+ 3.4.5.6.7.8.9.0.a.b.c.d.e.f.g.1.- + ",
"2.h.i.j.k.l.m.n.o.p.q.r.s.t.u.v.w.x.2.",
"y.z.A.B.C.D.E.F.G.H.I.J.K.L.M.N.O.P.y.",
"f Q.R.S.T.U.V.W.X.Y.Z.`. +.+++@+#+2.f ",
"+ $+%+&+*+=+-+;+>+,+'+)+!+~+{+]+1.# + ",
"f ^+/+(+_+:+<+[+}+|+1+2+3+4+5+6+7+f f ",
"y.8+9+0+a+b+c+d+e+f+g+h+i+j+k+l+m+n+y.",
",.o+p+q+r+s+t+u+v+w+x+y+z+A+B+C+D+} ,.",
"[ E+F+G+H+I+J+K+L+M+N+O+P+Q+R+S+T+U+[ ",
"V+W+X+Y+Z+`+ @.@+@@@#@$@%@D+&@&@*@y.V+",
"=@`+-@`+;@-@>@,@'@7+)@!@1.~@P.*@{@]@=@",
"^@`+-@-@`+/@(@_@=@{@=@D+]@'@=@'@~@^@^@",
". . . . . . . . . . . . . . . . . . . "};
