/* XPM */
static char * one_window_focused_inactive_xpm[] = {
"19 23 147 2",
"  	c None",
". 	c #797979",
"+ 	c #FEFEFE",
"@ 	c #FFFFFF",
"# 	c #FCFCFC",
"$ 	c #FDFDFD",
"% 	c #F8F8F8",
"& 	c #F0F0F0",
"* 	c #F4F4F4",
"= 	c #ECECEC",
"- 	c #F5F5F5",
"; 	c #EFEFEF",
"> 	c #E9E9E9",
", 	c #EEEEEE",
"' 	c #EAEAEA",
") 	c #F6F6F6",
"! 	c #F2F2F2",
"~ 	c #EDEDED",
"{ 	c #EBEBEB",
"] 	c #E8E8E8",
"^ 	c #DEDEDE",
"/ 	c #A6A6A6",
"( 	c #5E5E5E",
"_ 	c #2A2A2A",
": 	c #0F0F0F",
"< 	c #2C2C2C",
"[ 	c #606060",
"} 	c #D9D9D9",
"| 	c #F7F7F7",
"1 	c #6A6A6A",
"2 	c #585858",
"3 	c #9C9C9C",
"4 	c #C5C5C5",
"5 	c #D7D7D7",
"6 	c #CACACA",
"7 	c #A0A0A0",
"8 	c #4B4B4B",
"9 	c #6D6D6D",
"0 	c #757575",
"a 	c #5B5B5B",
"b 	c #A9A9A9",
"c 	c #DDDDDD",
"d 	c #F9F9F9",
"e 	c #AFAFAF",
"f 	c #5D5D5D",
"g 	c #777777",
"h 	c #9E9E9E",
"i 	c #414141",
"j 	c #7B7B7B",
"k 	c #B9B9B9",
"l 	c #D4D4D4",
"m 	c #D3D3D3",
"n 	c #BBBBBB",
"o 	c #474747",
"p 	c #959595",
"q 	c #E6E6E6",
"r 	c #4E4E4E",
"s 	c #6C6C6C",
"t 	c #ABABAB",
"u 	c #A2A2A2",
"v 	c #B2B2B2",
"w 	c #B5B5B5",
"x 	c #C1C1C1",
"y 	c #BABABA",
"z 	c #737373",
"A 	c #DCDCDC",
"B 	c #F3F3F3",
"C 	c #DBDBDB",
"D 	c #454545",
"E 	c #999999",
"F 	c #AAAAAA",
"G 	c #B0B0B0",
"H 	c #C0C0C0",
"I 	c #C7C7C7",
"J 	c #C2C2C2",
"K 	c #B6B6B6",
"L 	c #8F8F8F",
"M 	c #D2D2D2",
"N 	c #CCCCCC",
"O 	c #595959",
"P 	c #C9C9C9",
"Q 	c #CFCFCF",
"R 	c #D5D5D5",
"S 	c #D8D8D8",
"T 	c #B1B1B1",
"U 	c #D1D1D1",
"V 	c #E3E3E3",
"W 	c #676767",
"X 	c #E2E2E2",
"Y 	c #E0E0E0",
"Z 	c #D0D0D0",
"` 	c #C3C3C3",
" .	c #626262",
"..	c #BFBFBF",
"+.	c #E7E7E7",
"@.	c #B7B7B7",
"#.	c #DADADA",
"$.	c #767676",
"%.	c #7C7C7C",
"&.	c #FBFBFB",
"*.	c #FAFAFA",
"=.	c #A7A7A7",
"-.	c #7A7A7A",
";.	c #CDCDCD",
">.	c #888888",
",.	c #898989",
"'.	c #878787",
").	c #8C8C8C",
"!.	c #CECECE",
"~.	c #6B6B6B",
"{.	c #E4E4E4",
"].	c #939393",
"^.	c #565656",
"/.	c #747474",
"(.	c #9F9F9F",
"_.	c #727272",
":.	c #5A5A5A",
"<.	c #7F7F7F",
"[.	c #E1E1E1",
"}.	c #D6D6D6",
"|.	c #8B8B8B",
"1.	c #4D4D4D",
"2.	c #434343",
"3.	c #424242",
"4.	c #4A4A4A",
"5.	c #656565",
"6.	c #DFDFDF",
"7.	c #A1A1A1",
"8.	c #929292",
"9.	c #818181",
"0.	c #A3A3A3",
"a.	c #E5E5E7",
"b.	c #E7E7E9",
"c.	c #EAEAEC",
"d.	c #E8E8EA",
"e.	c #DFDFE1",
"f.	c #D0D0D2",
"g.	c #C5C5C7",
"h.	c #ACACAC",
"i.	c #C6C6C6",
"j.	c #DEDEE0",
"k.	c #E0E0E2",
"l.	c #D9D9DB",
"m.	c #D4D4D6",
"n.	c #E1E1E3",
"o.	c #E2E2E4",
"p.	c #E3E3E5",
". . . . . . . . . . . . . . . . . . . ",
"+ @ # # @ @ @ @ @ @ # $ @ @ @ @ @ @ + ",
"+ @ @ + # + $ $ @ @ @ @ $ # @ @ @ @ + ",
"% & * = & - ; > , * ' & - ) ! ~ = = % ",
", > { ] = ^ / ( _ : < [ / } , , { { , ",
"% ! ~ | } 1 2 3 4 5 6 7 8 9 5 ; ; & % ",
"@ @ @ & 0 a b c ] d = } e f g , @ @ @ ",
"| & { h i j k l } } 5 m n g o p { ; | ",
"; q 5 r s t u v n w x y / t z r A > ; ",
"B ] C D E F G H H I J K K / L 8 M ' B ",
"+ * N O G t P Q R S } Q Q v T ( U * + ",
"~ V y W H P S } > X q Y M Z `  ...+.~ ",
"+.} @.9 k U X , B | - ; q #.K $.e 5 +.",
"; X n %.b Y +.&.@ *.@ *., ~ =.-.k ^ ; ",
"+ , ;.>.,.N ) $ # @ ) @ $ 6 '.).!., + ",
"; X Z h ~.L #.&.@ @ @ @ {.].9 3 ;.{.; ",
"+.A Q n -.^././ U ' M (._.:.<...M } +.",
"q [.}.!.k |. .1.i 2.3.4.5.).w N } ' q ",
"* { - 6.5 ..7.8.9.$.9.8.0.H ^ { , = * ",
"] a.b.c.d.e.f.g.v h.w i.5 V > > {.+.] ",
"C e.j.e.k.j.l.m.c R M }.} A [.{.6.X C ",
"Y e.j.j.e.n.o.p.C 6.C V X c C c A Y Y ",
". . . . . . . . . . . . . . . . . . . "};
