/* XPM */
static char * title_ls_active_xpm[] = {
"6 23 32 1",
" 	c None",
".	c #797979",
"+	c #F3F3F3",
"@	c #FFFFFF",
"#	c #D7D7D7",
"$	c #E4E4E4",
"%	c #FEFEFE",
"&	c #B7B7B7",
"*	c #EDEDED",
"=	c #F8F8F8",
"-	c #FDFDFD",
";	c #F9F9F9",
">	c #EBEBEB",
",	c #FCFCFC",
"'	c #FBFBFB",
")	c #F6F6F6",
"!	c #F5F5F5",
"~	c #EAEAEA",
"{	c #FAFAFA",
"]	c #EFEFEF",
"^	c #F4F4F4",
"/	c #ECECEC",
"(	c #EEEEEE",
"_	c #F0F0F0",
":	c #E8E8E8",
"<	c #F1F1F1",
"[	c #F2F2F2",
"}	c #F7F7F7",
"|	c #E5E5E5",
"1	c #DCDCDC",
"2	c #DEDEDE",
"3	c #DFDFDF",
"    ..",
"  ..+@",
" .#$@%",
".&%@%*",
".=-%;>",
".@-,'+",
".---%@",
".@-;);",
".,'!>~",
".{,=]]",
".@%@-@",
".@@^/(",
".@,_::",
".-{<*(",
".''^^)",
".{=[[]",
".=<~>$",
".}<>*|",
".#;+!/",
".&#<>/",
" .&#12",
"  ..&3",
"    .."};
