/* XPM */
static char * title_rs_inactive_xpm[] = {
"6 23 61 1",
" 	c None",
".	c #000000",
"+	c #829FC7",
"@	c #6687B2",
"#	c #A2BADE",
"$	c #92AED3",
"%	c #7794BE",
"&	c #5979A8",
"*	c #9AAFCE",
"=	c #9CB3D3",
"-	c #9CB4D8",
";	c #7F98C1",
">	c #455D8B",
",	c #97ABC6",
"'	c #98ABC9",
")	c #A5B9DA",
"!	c #9AB0D5",
"~	c #6E84AD",
"{	c #9FB3CE",
"]	c #9DB1CC",
"^	c #9FB2D2",
"/	c #9DB1D4",
"(	c #8599BE",
"_	c #A2B7D2",
":	c #A0B5D0",
"<	c #A0B5D4",
"[	c #A4B8D9",
"}	c #99ADD2",
"|	c #9AAFCC",
"1	c #96ABC8",
"2	c #99AECD",
"3	c #A2B6D9",
"4	c #9CB0D5",
"5	c #97AAC8",
"6	c #9AADCB",
"7	c #9EB1CF",
"8	c #A1B4D2",
"9	c #9CAFCD",
"0	c #9BAECC",
"a	c #A0B3D1",
"b	c #9FB2D0",
"c	c #9DB0CE",
"d	c #96A9C7",
"e	c #A2B5D3",
"f	c #99ACCA",
"g	c #8FAAC5",
"h	c #8EA9C4",
"i	c #90ABC6",
"j	c #96B1CC",
"k	c #9AB5D0",
"l	c #95A9CC",
"m	c #93A7CA",
"n	c #96AACD",
"o	c #A0AED1",
"p	c #9EACCF",
"q	c #9FADD0",
"r	c #94A8C1",
"s	c #95A9C2",
"t	c #96AAC3",
"u	c #8DA6C4",
"v	c #8FA8C6",
"..    ",
"+@..  ",
"#$%&. ",
"*=-;>.",
",')!~.",
"{]^/(.",
"_:<[}.",
"|1234.",
"5'678.",
"9097a.",
"8aba8.",
"99c7a.",
"d5'69.",
"660cb.",
"7c7ae.",
"55f9b.",
"ghijk.",
"lmmn(.",
"oppq~.",
"rst;>.",
"uv%&. ",
"+@..  ",
"..    "};
