/* XPM */
static char * title_l_inactive_xpm[] = {
"6 23 73 1",
" 	c None",
".	c #000000",
"+	c #6687B2",
"@	c #829FC7",
"#	c #5979A8",
"$	c #7794BE",
"%	c #92AED3",
"&	c #A2BADE",
"*	c #455D8B",
"=	c #7F98C1",
"-	c #9CB4D8",
";	c #9CB3D3",
">	c #9AAFCE",
",	c #6E84AD",
"'	c #9AB0D5",
")	c #A5B9DA",
"!	c #98ABC9",
"~	c #97ABC6",
"{	c #8599BE",
"]	c #9DB1D4",
"^	c #9FB2D2",
"/	c #9DB1CC",
"(	c #9FB3CE",
"_	c #99ADD2",
":	c #A4B8D9",
"<	c #A0B5D4",
"[	c #A0B5D0",
"}	c #A2B7D2",
"|	c #9CB0D5",
"1	c #A2B6D9",
"2	c #99AECD",
"3	c #96ABC8",
"4	c #9AAFCC",
"5	c #A1B4D2",
"6	c #9EB1CF",
"7	c #9AADCB",
"8	c #97AAC8",
"9	c #A0B3D1",
"0	c #9CAFCD",
"a	c #9BAECC",
"b	c #9FB2D0",
"c	c #9DB0CE",
"d	c #96A9C7",
"e	c #A2B5D3",
"f	c #99ACCA",
"g	c #9AB5D0",
"h	c #96B1CC",
"i	c #90ABC6",
"j	c #8EA9C4",
"k	c #8FAAC5",
"l	c #99ADD0",
"m	c #96AACD",
"n	c #93A7CA",
"o	c #95A9CC",
"p	c #A1AFD2",
"q	c #9FADD0",
"r	c #9EACCF",
"s	c #A0AED1",
"t	c #9BAFC8",
"u	c #98ACC5",
"v	c #96AAC3",
"w	c #95A9C2",
"x	c #94A8C1",
"y	c #98B1CF",
"z	c #95AECC",
"A	c #91AAC8",
"B	c #8FA8C6",
"C	c #8DA6C4",
"D	c #94AAD1",
"E	c #92A8CF",
"F	c #8FA5CC",
"G	c #8DA3CA",
"H	c #8CA2C9",
"    ..",
"  ..+@",
" .#$%&",
".*=-;>",
".,')!~",
".{]^/(",
"._:<[}",
".|1234",
".567!8",
".960a0",
".59b95",
".96c00",
".07!8d",
".bca77",
".e96c6",
".b0f88",
".ghijk",
".lmnno",
".pqrrs",
".tuvwx",
".yzABC",
".DEFGH",
"......"};
