/* XPM */
static char * title_rs_active_xpm[] = {
"6 23 32 1",
" 	c None",
".	c #797979",
"+	c #FFFFFF",
"@	c #F3F3F3",
"#	c #FEFEFE",
"$	c #E4E4E4",
"%	c #D7D7D7",
"&	c #EDEDED",
"*	c #B7B7B7",
"=	c #EBEBEB",
"-	c #F9F9F9",
";	c #FDFDFD",
">	c #F8F8F8",
",	c #FBFBFB",
"'	c #FCFCFC",
")	c #F6F6F6",
"!	c #EAEAEA",
"~	c #F5F5F5",
"{	c #EFEFEF",
"]	c #FAFAFA",
"^	c #EEEEEE",
"/	c #ECECEC",
"(	c #F4F4F4",
"_	c #E8E8E8",
":	c #F0F0F0",
"<	c #F1F1F1",
"[	c #F2F2F2",
"}	c #E5E5E5",
"|	c #F7F7F7",
"1	c #DEDEDE",
"2	c #DCDCDC",
"3	c #DFDFDF",
"..    ",
"+@..  ",
"#+$%. ",
"&#+#*.",
"=-#;>.",
"@,';+.",
"+#;;;.",
"-)-;+.",
"!=~,'.",
"{{>'].",
"+;+#+.",
"^/(++.",
"__:'+.",
"^&<];.",
")((,,.",
"{[[>].",
"$=!<>.",
"}&=<|.",
"/~@-%.",
"/=<%*.",
"12%*. ",
"3*..  ",
"..    "};
