#define iconify_width 16
#define iconify_height 15
static char iconify_bits[] = {
   0x00, 0x00, 0xfc, 0x7f, 0x04, 0x40, 0x34, 0x58, 0x74, 0x5c, 0xe4, 0x4e,
   0xc4, 0x47, 0x84, 0x43, 0xc4, 0x47, 0xe4, 0x4e, 0x74, 0x5c, 0x34, 0x58,
   0x04, 0x40, 0xfc, 0x7f, 0x00, 0x00};
