#define resize_width 16
#define resize_height 15
static char resize_bits[] = {
   0x00, 0x00, 0xfe, 0x3f, 0x02, 0x20, 0x02, 0x20, 0xf2, 0x3f, 0x12, 0x20,
   0x12, 0x20, 0x12, 0x20, 0x12, 0x3f, 0x12, 0x21, 0x12, 0x21, 0x12, 0x21,
   0x12, 0x21, 0xfe, 0x3f, 0x00, 0x00};
